<svg version="1.1" id="Layer_1" xmlns="http://www.w3.org/2000/svg" xmlns:xlink="http://www.w3.org/1999/xlink" x="0px" y="0px"
	 width="100%" viewBox="0 0 1496 532" enable-background="new 0 0 1496 532" xml:space="preserve">
<path fill="#FAFAFB" opacity="1.000000" stroke="none" 
	d="
M959.000000,533.000000 
	C639.372620,533.000000 320.245270,533.000000 1.058955,533.000000 
	C1.058955,355.727814 1.058955,178.455627 1.058955,1.091711 
	C499.544098,1.091711 998.088196,1.091711 1496.816162,1.091711 
	C1496.816162,178.333176 1496.816162,355.666565 1496.816162,533.000000 
	C1317.788818,533.000000 1138.644409,533.000000 959.000000,533.000000 
M888.661560,297.630859 
	C888.069641,296.115723 887.477722,294.600555 886.730469,292.313599 
	C885.731323,288.985962 884.751465,285.652374 883.729492,282.331787 
	C880.239319,270.991364 876.734253,259.655487 873.280579,248.116257 
	C873.280579,248.116257 873.131470,247.973053 873.149963,247.143494 
	C871.327026,240.694275 869.504089,234.245041 867.681580,227.797256 
	C855.066406,227.797256 843.143555,227.775894 831.221252,227.848785 
	C830.482239,227.853317 829.747864,228.599121 828.994324,229.008667 
	C828.994324,229.008667 829.006775,229.024399 828.647949,229.749207 
	C828.616516,262.296265 828.577759,294.843323 828.567688,327.390381 
	C828.566833,330.031769 828.763367,332.673248 828.958923,336.137390 
	C836.942261,336.377869 844.925537,336.618317 853.706909,336.870331 
	C854.355408,335.430115 855.557190,333.993988 855.567810,332.549133 
	C855.687195,316.273956 855.738281,299.995941 855.531067,283.722260 
	C855.477112,279.481354 854.464233,275.252716 853.886780,270.153290 
	C853.825989,268.423676 853.765259,266.694061 854.477356,265.145081 
	C855.823120,268.530365 857.168884,271.915649 858.627502,275.870300 
	C858.714661,276.247253 858.801758,276.624207 858.467102,277.404663 
	C859.018738,278.562744 859.570435,279.720825 860.228455,281.499023 
	C860.327759,281.906403 860.427002,282.313751 860.220947,283.350037 
	C860.691711,284.313965 861.162415,285.277893 861.729614,286.833038 
	C861.816589,287.222595 861.903564,287.612183 861.603516,288.366150 
	C862.088806,289.228607 862.574158,290.091064 863.177063,291.555267 
	C863.257812,291.955902 863.338501,292.356537 863.178528,293.532104 
	C864.214722,296.474396 865.250854,299.416687 866.424866,303.020447 
	C866.555054,303.683533 866.685303,304.346649 866.394409,305.481354 
	C867.397034,308.100800 868.399658,310.720215 869.525269,313.894257 
	C869.585449,314.268158 869.645630,314.642059 869.324341,315.502899 
	C869.934021,316.997375 870.543701,318.491852 871.234436,320.572601 
	C871.313171,320.959045 871.391907,321.345459 871.227600,322.500061 
	C872.250061,325.324402 873.272522,328.148743 874.371643,331.548096 
	C874.458374,331.924530 874.545044,332.300995 874.319641,333.330811 
	C874.975830,334.400665 875.632019,335.470490 877.163879,336.758270 
	C886.019836,336.688354 894.875854,336.618439 904.393372,336.351135 
	C906.404724,328.801727 908.416138,321.252289 910.572327,313.139954 
	C910.636597,312.757965 910.700867,312.376007 911.328552,311.534393 
	C912.072083,308.617279 912.815674,305.700165 913.705505,302.161560 
	C913.772949,301.741364 913.840393,301.321136 914.421570,300.593170 
	C914.675842,299.395050 914.930176,298.196960 915.300171,296.428009 
	C915.348633,296.042786 915.397034,295.657532 916.009460,294.914398 
	C916.229187,293.874634 916.448914,292.834869 916.788513,291.336975 
	C916.788513,291.336975 916.873230,290.871063 917.342834,290.463531 
	C917.623108,288.972900 917.903381,287.482300 918.312744,285.435303 
	C918.395081,285.063538 918.477417,284.691803 919.094849,283.907349 
	C919.873230,280.834808 920.651611,277.762299 921.574768,274.126648 
	C921.643860,273.745331 921.712952,273.363983 922.721680,272.825287 
	C923.302795,274.507599 924.378479,276.186859 924.388794,277.872681 
	C924.499390,295.827911 924.394043,313.784424 924.509399,331.739563 
	C924.519897,333.360382 925.655090,334.973999 927.155640,336.763458 
	C935.367371,336.763458 943.579102,336.763458 952.168396,336.763458 
	C952.168396,334.754364 952.168396,333.456848 952.788818,331.892578 
	C952.576660,329.872192 952.364563,327.851807 952.163818,324.915497 
	C952.157837,299.990509 952.151917,275.065552 952.638489,249.748489 
	C952.476196,248.817337 952.313904,247.886200 952.167603,246.052109 
	C952.164551,242.760468 952.161438,239.468826 952.778809,235.902802 
	C952.569641,233.887207 952.360413,231.871597 952.088501,229.256195 
	C951.724854,228.823395 951.361145,228.390594 950.362183,227.440796 
	C938.915527,227.370117 927.468506,227.244064 916.022583,227.307449 
	C914.765198,227.314423 912.674866,228.147049 912.396606,229.040726 
	C910.657654,234.625214 909.324036,240.335922 907.703491,246.593094 
	C907.629822,246.991180 907.556213,247.389282 906.918030,248.160278 
	C906.152527,251.201462 905.386963,254.242630 904.471802,257.845978 
	C904.411621,258.229156 904.351379,258.612335 903.731689,259.464081 
	C903.065735,262.094086 902.399841,264.724091 901.446777,267.995361 
	C901.329346,268.686859 901.211914,269.378326 900.633301,270.377838 
	C900.424622,271.252472 900.216003,272.127106 899.838989,273.664062 
	C899.726624,274.338104 899.614197,275.012115 898.944946,276.050354 
	C898.278137,278.698883 897.611389,281.347443 896.769653,284.653229 
	C896.778198,285.099335 896.786743,285.545441 896.494812,286.335999 
	C896.494812,286.335999 896.634521,286.771210 896.480225,286.621033 
	C896.480225,286.621033 896.283203,286.707947 895.743042,287.087555 
	C895.044983,289.844574 894.346924,292.601562 893.479553,295.897308 
	C893.415588,296.268219 893.351624,296.639130 892.768677,297.425751 
	C891.513306,298.427643 891.954895,302.085571 888.620178,299.431824 
	C888.529297,299.053223 888.438416,298.674591 888.661560,297.630859 
M716.648804,304.425690 
	C716.652100,304.756134 716.655457,305.086609 716.178040,305.950012 
	C713.153931,315.034790 710.075317,324.102325 707.187256,333.230164 
	C706.888367,334.174774 707.723755,335.478271 708.941650,336.835663 
	C717.485474,336.848938 726.030945,336.949066 734.571472,336.787354 
	C735.945862,336.761353 737.298279,335.567719 739.163940,334.420380 
	C739.818604,331.575073 740.473206,328.729767 741.609192,325.346069 
	C741.641174,324.870544 741.673157,324.395050 742.176880,323.371399 
	C742.913208,317.272003 746.630249,316.154266 752.200012,316.441559 
	C761.155945,316.903564 770.153748,316.553558 779.156311,316.841858 
	C779.156311,316.841858 779.451599,316.863342 779.412170,317.655426 
	C780.685059,322.699432 781.831360,327.781036 783.310852,332.763672 
	C783.733032,334.185455 785.122009,335.320099 786.980286,336.762573 
	C796.301208,336.699615 805.622131,336.636688 815.570374,336.695862 
	C815.587830,335.176056 816.010742,333.523682 815.563477,332.155823 
	C804.589539,298.592560 793.485413,265.071808 782.532959,231.501587 
	C781.460876,228.215698 779.731323,227.275818 776.405579,227.347397 
	C766.595337,227.558548 756.770874,227.632980 746.965820,227.323227 
	C742.720276,227.189117 740.586304,228.358414 739.758484,232.708694 
	C739.052856,236.416992 737.352112,239.927689 736.206543,243.562042 
	C732.378845,255.705200 728.602844,267.864655 724.433044,280.660492 
	C724.399170,281.149872 724.365356,281.639252 723.801758,282.587067 
	C721.518433,289.730804 719.235107,296.874542 716.648804,304.425690 
M355.210846,85.912933 
	C355.190796,100.303574 355.170776,114.694214 354.285400,129.547180 
	C352.466492,129.656113 350.647797,129.855042 348.828644,129.859360 
	C337.020569,129.887375 325.209503,129.719116 313.405548,129.941238 
	C307.971252,130.043518 303.391113,132.198563 301.174988,137.709427 
	C299.144562,142.758453 299.416229,147.396606 303.894562,151.929230 
	C305.207458,152.686798 306.520386,153.444366 308.278961,154.784271 
	C321.067017,155.157928 333.854736,155.544083 346.643402,155.894897 
	C349.251923,155.966461 351.864044,155.905273 354.974213,155.905273 
	C354.974213,158.484436 354.973877,160.285919 354.974243,162.087402 
	C354.976501,173.580627 354.799164,185.078659 355.106232,196.563736 
	C355.184204,199.480789 356.803070,202.356644 357.887695,205.868423 
	C358.817993,206.701859 359.748322,207.535278 361.174042,208.870071 
	C371.190308,213.647858 380.383820,208.035507 380.475342,196.975418 
	C380.570312,185.495132 380.497925,174.013504 380.500946,162.532455 
	C380.502716,155.916504 380.504913,155.947845 387.354523,155.903320 
	C399.323761,155.825516 411.320618,156.165558 423.252106,155.442596 
	C431.397430,154.949066 436.159393,148.965256 435.562561,142.004944 
	C434.927856,134.602768 429.410980,129.922516 421.120636,129.889847 
	C409.473358,129.843964 397.825745,129.888718 386.178375,129.864761 
	C384.429749,129.861160 382.681488,129.694839 380.495392,129.581009 
	C380.495392,127.276871 380.496582,125.477463 380.495209,123.678062 
	C380.485962,111.531601 380.575775,99.383896 380.424927,87.239189 
	C380.348480,81.085121 376.169617,76.533104 369.858063,75.106010 
	C364.813477,73.965401 359.645508,76.650467 356.360138,82.220169 
	C356.088684,83.158607 355.817230,84.097046 355.210846,85.912933 
M701.608826,228.011261 
	C675.213501,227.953140 648.818176,227.892883 622.422852,227.854019 
	C621.950684,227.853333 621.478088,228.108810 620.462891,228.351196 
	C620.441589,228.873062 620.420227,229.394928 620.149902,230.833939 
	C620.334961,237.588120 620.519958,244.342285 621.068420,251.780457 
	C627.369934,251.919479 633.670898,252.114594 639.973206,252.182175 
	C646.680115,252.254074 646.691406,252.201340 646.692444,258.705780 
	C646.696289,282.692169 646.692383,306.678558 646.691406,330.664948 
	C646.691345,332.601074 646.691406,334.537201 646.691406,336.878296 
	C654.884399,336.878296 662.388794,336.482788 669.827637,337.011169 
	C675.184204,337.391663 676.091614,335.430603 676.042786,330.568634 
	C675.798523,306.251526 675.968811,281.930542 675.879272,257.611359 
	C675.866394,254.113464 676.279663,251.853912 680.679626,252.124680 
	C685.989807,252.451477 691.338257,252.298981 696.664185,252.145493 
	C698.460754,252.093704 700.239014,251.405518 702.394043,250.575516 
	C702.280823,250.238602 702.167664,249.901703 702.454956,248.798691 
	C702.321045,245.677322 702.187134,242.555939 702.419373,238.930954 
	C702.297974,238.142731 702.176636,237.354492 702.450806,235.845840 
	C702.328735,233.479538 702.206604,231.113220 701.608826,228.011261 
M1199.325073,227.921967 
	C1190.037598,227.921967 1180.750000,227.921967 1171.287476,227.921967 
	C1171.287476,264.410919 1171.287476,300.578125 1171.287476,336.640930 
	C1181.175171,336.640930 1190.731445,336.640930 1200.897461,336.640930 
	C1200.737549,333.105896 1200.597656,330.013916 1200.715942,326.029572 
	C1200.733643,316.364166 1200.798096,306.698608 1200.758301,297.033417 
	C1200.695190,281.713654 1200.562256,266.394165 1200.770142,250.253067 
	C1200.664917,248.810715 1200.559814,247.368362 1200.698486,245.322067 
	C1200.615356,244.904221 1200.532227,244.486389 1200.764526,243.250473 
	C1200.663330,241.809464 1200.562256,240.368469 1200.718140,238.099335 
	C1200.700195,235.789230 1200.682251,233.479141 1200.992310,230.498627 
	C1200.629761,229.725601 1200.267212,228.952560 1199.325073,227.921967 
M389.803864,228.585754 
	C389.512207,228.440414 389.220551,228.295074 388.027679,227.908905 
	C378.795074,227.908905 369.562469,227.908905 360.271790,227.908905 
	C360.271790,264.575012 360.271790,300.427094 360.271790,336.540771 
	C370.119995,336.540771 379.671906,336.540771 389.799164,336.540771 
	C389.799164,333.317505 389.803772,330.370239 389.798462,327.422943 
	C389.739349,294.652374 389.678741,261.881775 389.803864,228.585754 
M516.525391,328.079285 
	C516.547241,307.348816 516.598572,286.618317 516.573120,265.887909 
	C516.565369,259.602478 516.345276,253.317337 516.511292,246.146332 
	C516.416443,242.750336 516.321655,239.354355 516.519348,235.079086 
	C516.519348,232.821381 516.519348,230.563675 516.519348,228.083435 
	C507.579803,228.083435 499.336853,228.083435 491.281982,228.083435 
	C491.281982,250.559158 491.281982,272.786713 491.066895,295.811523 
	C491.066895,297.451019 491.066895,299.090515 491.066895,300.729980 
	C482.755981,287.425140 475.766449,273.971741 468.667389,260.576385 
	C463.582092,250.980881 458.350159,241.463074 453.047852,231.144730 
	C451.755127,230.049347 450.481873,228.030609 449.166687,228.002945 
	C437.403961,227.755341 425.633820,227.858566 413.261353,227.858566 
	C413.261353,237.122406 413.261200,245.887344 413.261414,254.652298 
	C413.262024,280.597382 413.264130,306.542450 413.261047,332.487549 
	C413.260773,334.661072 412.878876,337.072784 416.225983,337.043854 
	C422.875244,336.986389 429.524292,336.873596 436.173553,336.865692 
	C439.107788,336.862213 439.552673,335.396271 439.007599,332.217773 
	C438.923859,331.128815 438.840118,330.039825 439.042206,328.058716 
	C438.944458,315.727478 438.846741,303.396240 439.014069,290.188141 
	C438.924408,287.460907 438.834747,284.733643 439.002045,281.156372 
	C438.865875,279.099640 438.729706,277.042938 438.778839,274.081665 
	C438.778839,270.424896 438.778839,266.768127 438.778839,263.111359 
	C440.988647,265.142822 442.292786,267.361786 443.483887,269.639893 
	C454.746094,291.180389 465.989014,312.730957 477.437195,335.092743 
	C478.202423,335.654755 478.963531,336.699921 479.733459,336.706512 
	C491.811218,336.809601 503.890137,336.778778 516.546936,336.778778 
	C516.419006,334.530090 516.319580,332.782104 516.503296,330.366211 
	C516.410645,329.901154 516.317932,329.436127 516.525391,328.079285 
M224.986343,144.467300 
	C211.080032,163.710556 196.259460,182.367340 183.459915,202.320541 
	C157.713333,242.456863 137.571228,285.139923 130.259079,332.890320 
	C127.018173,354.054291 127.426422,375.021790 134.551773,395.503571 
	C154.925934,454.068939 221.602890,484.763489 278.874969,461.049347 
	C319.272003,444.322540 342.347565,413.459991 347.610046,369.919250 
	C350.349945,347.250031 346.089600,325.144257 340.137604,303.372650 
	C332.470520,275.327423 320.404816,249.108261 306.240326,223.824310 
	C291.011261,196.640091 273.577698,170.927567 253.799789,146.843094 
	C245.507324,136.744965 234.835739,135.824753 224.986343,144.467300 
M544.242859,335.219116 
	C560.371948,339.402161 576.546936,340.645050 592.171875,333.689819 
	C615.164673,323.454865 616.231384,293.267639 602.167542,281.584259 
	C598.373962,278.432770 594.005554,275.881592 589.647827,273.522552 
	C583.231445,270.049103 576.483765,267.185516 570.086609,263.679932 
	C567.030884,262.005402 563.474854,259.149750 565.544312,255.417313 
	C566.944214,252.892548 570.828857,250.397400 573.676025,250.310455 
	C579.201172,250.141785 584.835083,251.414932 590.315186,252.595474 
	C594.412170,253.478058 598.338501,255.152771 602.405151,256.496033 
	C605.166260,249.680420 607.561096,243.490479 610.193909,237.403458 
	C611.282410,234.886810 610.372314,233.666992 608.178528,232.804443 
	C591.316406,226.174576 574.217407,223.667770 556.529602,229.501816 
	C534.858398,236.649750 528.043823,265.420074 544.860229,280.897186 
	C550.113708,285.732300 557.007874,288.842621 563.316040,292.454437 
	C567.913147,295.086670 573.113342,296.777893 577.388489,299.812988 
	C579.543335,301.342773 581.469666,305.050537 581.219971,307.545349 
	C581.005981,309.683441 577.818909,312.639832 575.461304,313.203278 
	C571.225769,314.215515 566.455017,314.534363 562.214172,313.659119 
	C553.194458,311.797607 544.371155,308.984619 535.036194,306.444336 
	C535.036194,311.292206 535.522766,316.630402 534.917297,321.841766 
	C534.094788,328.921631 535.957458,333.645630 544.242859,335.219116 
M1034.406006,227.847916 
	C1014.967957,227.847916 995.529907,227.847916 976.017456,227.847916 
	C976.017456,264.446991 976.017456,300.450256 976.017456,336.515930 
	C997.540283,336.515930 1018.618286,336.515930 1039.868652,336.515930 
	C1039.868652,328.642731 1039.868652,321.080109 1039.868652,312.985168 
	C1028.340210,312.985168 1017.104553,312.985168 1005.593506,312.985168 
	C1005.593506,305.924286 1005.593506,299.401031 1005.593506,292.458221 
	C1015.106567,292.458221 1024.240356,292.450439 1033.374146,292.463806 
	C1035.614136,292.467102 1037.797729,292.648071 1037.749634,289.306396 
	C1037.654053,282.667816 1037.721313,276.026917 1037.721313,268.693848 
	C1026.778687,268.693848 1016.235413,268.693848 1005.514404,268.693848 
	C1005.514404,262.745575 1005.514404,257.500092 1005.514404,251.530914 
	C1017.156860,251.530914 1028.516479,251.530914 1039.926514,251.530914 
	C1039.926514,243.364960 1039.926514,235.928131 1039.926514,228.150970 
	C1038.266357,228.040039 1036.825195,227.943741 1034.406006,227.847916 
M1073.508789,227.694092 
	C1068.880005,227.694092 1064.251099,227.694092 1059.426270,227.694092 
	C1059.426270,264.295197 1059.426270,300.329010 1059.426270,337.812775 
	C1077.544189,336.862732 1095.334839,336.692810 1112.922729,334.717743 
	C1123.259888,333.556885 1132.248901,327.775452 1139.156860,319.540039 
	C1151.049072,305.362366 1153.395752,288.579376 1151.102905,271.122620 
	C1147.802979,245.997543 1134.939697,232.689453 1109.861450,229.012054 
	C1098.261353,227.311050 1086.302368,228.057587 1073.508789,227.694092 
z"/>
<path fill="#08307A" opacity="1.000000" stroke="none" 
	d="
M225.249939,144.230103 
	C234.835739,135.824753 245.507324,136.744965 253.799789,146.843094 
	C273.577698,170.927567 291.011261,196.640091 306.240326,223.824310 
	C320.404816,249.108261 332.470520,275.327423 340.137604,303.372650 
	C346.089600,325.144257 350.349945,347.250031 347.610046,369.919250 
	C342.347565,413.459991 319.272003,444.322540 278.874969,461.049347 
	C221.602890,484.763489 154.925934,454.068939 134.551773,395.503571 
	C127.426422,375.021790 127.018173,354.054291 130.259079,332.890320 
	C137.571228,285.139923 157.713333,242.456863 183.459915,202.320541 
	C196.259460,182.367340 211.080032,163.710556 225.249939,144.230103 
M297.126740,290.337097 
	C296.961975,289.691681 296.869171,289.017212 296.622131,288.404999 
	C283.429169,255.711792 265.934326,225.403885 245.652084,196.650620 
	C243.423386,193.491119 240.951248,190.503326 238.319611,187.081696 
	C236.865799,188.934692 235.928314,190.060410 235.064911,191.240356 
	C218.445587,213.952820 203.564865,237.741058 191.337845,263.108704 
	C177.244888,292.347626 166.277695,322.507538 165.203278,355.467743 
	C164.771378,368.717194 167.131668,381.344666 173.613831,392.940125 
	C190.713501,423.528534 220.392700,437.036530 254.891144,430.176605 
	C284.446411,424.299622 309.233917,396.068878 311.159424,366.048492 
	C312.835999,339.910004 306.558258,315.217590 297.126740,290.337097 
z"/>
<path fill="#131098" opacity="1.000000" stroke="none" 
	d="
M871.470642,321.731903 
	C871.391907,321.345459 871.313171,320.959045 871.384033,320.043976 
	C870.924316,318.015533 870.315063,316.515747 869.705750,315.015961 
	C869.645630,314.642059 869.585449,314.268158 869.590698,313.249573 
	C868.709290,310.073151 867.762390,307.541443 866.815491,305.009735 
	C866.685303,304.346649 866.555054,303.683533 866.510742,302.330200 
	C865.537476,298.679016 864.478333,295.718109 863.419189,292.757172 
	C863.338501,292.356537 863.257812,291.955902 863.210083,290.917572 
	C862.825623,289.520477 862.408081,288.761108 861.990540,288.001740 
	C861.903564,287.612183 861.816589,287.222595 861.803833,286.209991 
	C861.427490,284.631683 860.976929,283.676392 860.526367,282.721130 
	C860.427002,282.313751 860.327759,281.906403 860.258545,280.828094 
	C859.822083,279.105164 859.355469,278.053162 858.888916,277.001160 
	C858.801758,276.624207 858.714661,276.247253 858.700073,275.201294 
	C857.258484,269.374634 855.744263,264.217010 854.230042,259.059357 
	C853.517700,259.289337 852.805298,259.519348 852.092957,259.749329 
	C852.630127,261.487701 853.167297,263.226074 853.704468,264.964447 
	C853.765259,266.694061 853.825989,268.423676 853.679199,270.906891 
	C853.513245,273.799011 853.593872,275.937561 853.590576,278.076019 
	C853.562500,296.078888 853.518982,314.081726 853.114502,332.224121 
	C847.306519,333.237335 841.859802,334.084869 836.423218,334.992889 
	C831.919617,335.745087 830.867554,333.773773 830.889771,329.448761 
	C831.060303,296.303009 830.982300,263.156006 831.281616,229.716339 
	C842.013916,229.293976 852.446106,229.106583 862.878723,229.075455 
	C865.544495,229.067490 866.732971,230.488342 867.133911,233.423233 
	C867.729492,237.783325 869.106018,242.055725 870.421021,246.281158 
	C870.660828,247.051682 872.194885,247.419403 873.131470,247.973053 
	C873.131470,247.973053 873.280579,248.116257 873.188049,248.711838 
	C872.603394,253.660782 874.303955,257.376190 875.620667,261.464233 
	C879.328918,272.977539 881.090454,285.111206 886.830505,296.325684 
	C887.049622,297.020599 887.147156,297.426147 886.960327,298.030334 
	C887.149780,299.156525 887.623657,300.084106 888.257935,301.298157 
	C889.283875,302.821442 890.149475,304.058258 891.090637,305.603333 
	C896.205811,306.089966 893.160400,302.371155 893.735840,300.137024 
	C893.538757,298.897888 893.413208,297.953979 893.287659,297.010040 
	C893.351624,296.639130 893.415588,296.268219 893.780151,295.618774 
	C894.313660,295.166290 894.569031,295.036652 895.210632,294.913818 
	C895.642090,293.525940 895.709778,292.175568 895.865906,290.472931 
	C896.063965,288.983124 896.173584,287.845520 896.283203,286.707947 
	C896.283203,286.707947 896.480225,286.621033 896.769165,286.697144 
	C897.165344,286.686523 897.272705,286.599792 897.380005,286.513031 
	C897.185120,286.339203 896.990173,286.165375 896.795288,285.991547 
	C896.786743,285.545441 896.778198,285.099335 897.117676,284.362183 
	C897.639771,284.049347 897.813843,284.027557 898.361206,283.938110 
	C899.539917,280.291412 900.345520,276.712341 901.505005,273.014404 
	C902.572205,269.588806 903.285522,266.282135 904.012451,262.695496 
	C904.267029,261.920776 904.508118,261.425995 905.154480,260.883850 
	C906.007874,258.135529 906.455933,255.434555 906.927368,252.441406 
	C907.255798,251.431641 907.560913,250.714050 908.222473,249.947052 
	C908.693420,248.569717 908.807861,247.241791 908.959900,245.571014 
	C909.130371,244.788605 909.263306,244.349014 909.567017,243.695923 
	C909.809143,242.942123 909.880615,242.401825 909.969604,241.555283 
	C910.311584,240.500626 910.636047,239.752228 911.348145,238.921021 
	C912.130859,236.478104 912.526062,234.117996 912.941650,231.451324 
	C913.359741,230.433334 913.757507,229.721939 914.614136,229.012283 
	C924.383362,229.012360 933.693787,228.971848 943.003723,229.024628 
	C948.006592,229.052994 950.068909,230.979263 949.958862,235.908463 
	C949.805786,242.769211 949.096191,249.621460 949.053955,256.479980 
	C948.927063,277.094696 949.005249,297.710693 949.014038,318.326172 
	C949.014648,319.820068 949.131165,321.313782 949.139038,322.807831 
	C949.158264,326.445801 949.145325,330.083923 949.145325,334.142151 
	C941.497314,334.142151 934.986694,334.142151 927.804199,334.142151 
	C930.492920,329.314789 930.169800,325.806488 926.292969,322.538513 
	C926.185547,301.202362 926.185547,280.324799 926.185547,259.447266 
	C925.706360,259.390228 925.227112,259.333191 924.747925,259.276154 
	C923.759277,263.844971 922.770630,268.413818 921.781982,272.982635 
	C921.712952,273.363983 921.643860,273.745331 921.195801,274.574646 
	C920.064514,278.121765 919.312134,281.220917 918.559753,284.320038 
	C918.477417,284.691803 918.395081,285.063538 917.926453,285.919861 
	C917.317810,287.893311 917.095520,289.382172 916.873230,290.871063 
	C916.873230,290.871063 916.788513,291.336975 916.398254,291.685303 
	C915.820496,293.113190 915.632996,294.192749 915.445435,295.272308 
	C915.397034,295.657532 915.348633,296.042786 914.943909,296.925598 
	C914.361084,298.582458 914.134460,299.741699 913.907898,300.900940 
	C913.840393,301.321136 913.772949,301.741364 913.311218,302.605530 
	C912.199646,306.031006 911.482361,309.012512 910.765137,311.994019 
	C910.700867,312.376007 910.636597,312.757965 910.196167,313.601501 
	C907.790649,321.558197 905.761230,329.053375 903.731812,336.548523 
	C894.875854,336.618439 886.019836,336.688354 876.725830,336.328186 
	C875.735779,334.824554 875.183777,333.751007 874.631775,332.677429 
	C874.545044,332.300995 874.458374,331.924530 874.525085,330.996948 
	C873.609253,327.541199 872.539978,324.636536 871.470642,321.731903 
z"/>
<path fill="#131098" opacity="1.000000" stroke="none" 
	d="
M438.745056,282.006409 
	C438.834747,284.733643 438.924408,287.460907 438.638824,290.953247 
	C438.173676,300.531799 438.001587,309.345520 438.033691,318.158478 
	C438.046814,321.756775 438.502197,325.353455 438.756348,328.950867 
	C438.840118,330.039825 438.923859,331.128815 438.478424,332.675964 
	C434.998871,333.427612 432.049133,333.951874 429.097931,333.960449 
	C424.647797,333.973419 418.598785,335.279449 416.200562,332.961609 
	C413.858368,330.697937 415.035950,324.578735 415.025269,320.151215 
	C414.959320,292.840424 414.998047,265.529358 414.993622,238.218384 
	C414.992126,229.000961 415.007690,228.561096 424.245483,229.122162 
	C433.906036,229.708923 444.009613,226.271393 453.183655,231.910583 
	C458.350159,241.463074 463.582092,250.980881 468.667389,260.576385 
	C475.766449,273.971741 482.755981,287.425140 491.066895,300.729980 
	C491.066895,299.090515 491.066895,297.451019 491.546570,295.291077 
	C492.351959,293.052246 492.954559,291.334808 492.960693,289.615295 
	C493.027161,270.953857 492.945099,252.291626 493.100494,233.631241 
	C493.113281,232.098938 494.487366,229.312683 495.366028,229.256592 
	C501.431305,228.869370 507.533051,229.052780 512.277893,229.052780 
	C514.042664,232.138779 515.134766,234.048569 516.226868,235.958359 
	C516.321655,239.354355 516.416443,242.750336 515.951538,246.648773 
	C514.930237,248.276718 514.069458,249.400986 514.065979,250.527924 
	C513.988647,275.458313 513.974792,300.389160 514.099854,325.319153 
	C514.105957,326.539978 515.485352,327.753937 516.225281,328.971069 
	C516.317932,329.436127 516.410645,329.901154 515.970276,330.741699 
	C513.076111,332.081390 510.743042,333.790680 508.348938,333.880981 
	C497.988190,334.271667 487.609589,334.189056 477.237488,334.278625 
	C465.989014,312.730957 454.746094,291.180389 443.483887,269.639893 
	C442.292786,267.361786 440.988647,265.142822 438.778839,263.111359 
	C438.778839,266.768127 438.778839,270.424896 438.350647,274.655457 
	C438.196655,277.488312 438.470886,279.747375 438.745056,282.006409 
M493.591522,298.797028 
	C493.197632,298.792023 492.803772,298.787048 492.409882,298.782043 
	C492.408508,298.945374 492.395935,299.250549 492.407379,299.251465 
	C492.799225,299.282379 493.193359,299.284424 493.591522,298.797028 
z"/>
<path fill="#120F98" opacity="1.000000" stroke="none" 
	d="
M741.705139,323.919525 
	C741.673157,324.395050 741.641174,324.870544 741.142334,325.638977 
	C740.366089,326.251434 740.056702,326.570984 739.415771,327.029449 
	C738.750427,328.788452 738.416687,330.408569 738.058228,332.346558 
	C737.997253,333.087341 737.960938,333.510254 737.461609,333.964600 
	C727.380249,333.968475 717.761963,333.940948 708.265991,333.604004 
	C708.653870,332.215546 708.919373,331.136475 709.357544,329.910095 
	C709.752930,329.543274 709.897278,329.280701 710.127686,328.651611 
	C710.915344,326.250977 711.538452,324.173767 712.430969,322.020325 
	C712.784302,321.290192 712.868225,320.636292 713.001221,319.694061 
	C713.360901,318.932404 713.671570,318.459045 714.248901,317.750946 
	C714.678406,316.343750 714.841187,315.171295 715.042114,313.771912 
	C715.080261,313.544983 715.149780,313.090027 715.494263,312.971741 
	C716.226685,311.235901 716.614685,309.618317 717.001343,308.000366 
	C717.000000,308.000000 717.002441,308.002289 717.263977,307.763000 
	C717.689575,306.355255 717.853638,305.186829 718.146362,303.727997 
	C718.531128,302.639618 718.787109,301.841614 719.407166,300.940491 
	C720.177856,298.889618 720.584595,296.941925 721.033325,294.704651 
	C721.381775,293.940216 721.688110,293.465302 722.251099,292.779572 
	C722.663086,291.707947 722.818420,290.847107 722.999268,289.662598 
	C723.067200,288.908081 723.109741,288.477234 723.357056,287.843597 
	C723.698914,287.089905 723.836060,286.539001 724.011353,285.696564 
	C724.360046,284.929626 724.670593,284.454193 725.319946,283.922363 
	C725.774353,282.570740 725.890015,281.275543 726.061157,279.622314 
	C726.775879,277.199249 727.434937,275.134247 728.422852,272.976318 
	C729.131592,271.904938 729.511475,270.926483 729.916870,269.562683 
	C730.322144,267.467865 730.701965,265.758423 731.412842,263.962219 
	C732.122070,262.897339 732.500183,261.919128 732.911255,260.550385 
	C733.044678,259.335266 733.020020,258.471405 733.265015,257.692291 
	C735.557922,250.400055 737.844055,243.104843 740.243042,235.847137 
	C741.650024,231.590591 743.352600,228.295654 749.214417,228.764343 
	C757.488342,229.425873 765.862610,229.135803 774.178040,228.825806 
	C777.556519,228.699875 779.821899,230.012924 780.984680,232.667175 
	C782.661865,236.495590 783.774231,240.581833 784.987366,244.600418 
	C786.421326,249.350204 787.542969,254.198883 789.097656,258.906403 
	C790.898926,264.360687 793.198547,269.651459 794.970520,275.114197 
	C798.230774,285.165283 801.175598,295.318481 804.417725,305.375671 
	C807.171631,313.918518 810.158875,322.386139 813.113159,331.112610 
	C813.334167,331.630920 813.564270,331.833435 813.913086,332.275452 
	C813.984192,333.046570 814.015869,333.488037 813.574768,333.956390 
	C806.682800,333.994537 800.254639,334.209290 793.848511,333.926422 
	C790.895020,333.795990 787.984497,332.692230 784.886963,331.671173 
	C784.318481,329.594391 784.106079,327.803467 783.476501,326.173706 
	C782.259094,323.022247 780.806641,319.961609 779.451599,316.863342 
	C779.451599,316.863342 779.156311,316.841858 778.976196,316.350830 
	C777.215271,315.595032 775.636353,315.114899 774.053406,315.101196 
	C765.447693,315.026642 756.841003,315.059174 748.234619,315.070648 
	C741.394287,315.079742 740.046692,316.916656 741.705139,323.919525 
M772.468933,292.173584 
	C771.727051,288.335663 771.156494,284.454926 770.210754,280.667938 
	C767.480408,269.734558 764.598816,258.838928 761.498535,246.853333 
	C757.832825,261.559845 754.414062,275.071045 751.172058,288.624542 
	C750.874390,289.869019 751.705688,291.383484 752.113708,293.566467 
	C752.882324,294.034668 753.640015,294.885834 754.421448,294.908234 
	C759.099243,295.042419 763.790894,295.140350 768.458313,294.888153 
	C769.675415,294.822449 770.822815,293.466705 772.468933,292.173584 
z"/>
<path fill="#151197" opacity="1.000000" stroke="none" 
	d="
M543.860107,335.115082 
	C535.957458,333.645630 534.094788,328.921631 534.917297,321.841766 
	C535.522766,316.630402 535.036194,311.292206 535.036194,306.444336 
	C544.371155,308.984619 553.194458,311.797607 562.214172,313.659119 
	C566.455017,314.534363 571.225769,314.215515 575.461304,313.203278 
	C577.818909,312.639832 581.005981,309.683441 581.219971,307.545349 
	C581.469666,305.050537 579.543335,301.342773 577.388489,299.812988 
	C573.113342,296.777893 567.913147,295.086670 563.316040,292.454437 
	C557.007874,288.842621 550.113708,285.732300 544.860229,280.897186 
	C528.043823,265.420074 534.858398,236.649750 556.529602,229.501816 
	C574.217407,223.667770 591.316406,226.174576 608.178528,232.804443 
	C610.372314,233.666992 611.282410,234.886810 610.193909,237.403458 
	C607.561096,243.490479 605.166260,249.680420 602.405151,256.496033 
	C598.338501,255.152771 594.412170,253.478058 590.315186,252.595474 
	C584.835083,251.414932 579.201172,250.141785 573.676025,250.310455 
	C570.828857,250.397400 566.944214,252.892548 565.544312,255.417313 
	C563.474854,259.149750 567.030884,262.005402 570.086609,263.679932 
	C576.483765,267.185516 583.231445,270.049103 589.647827,273.522552 
	C594.005554,275.881592 598.373962,278.432770 602.167542,281.584259 
	C616.231384,293.267639 615.164673,323.454865 592.171875,333.689819 
	C576.546936,340.645050 560.371948,339.402161 543.860107,335.115082 
z"/>
<path fill="#131096" opacity="1.000000" stroke="none" 
	d="
M1034.895020,227.847687 
	C1036.825195,227.943741 1038.266357,228.040039 1039.926514,228.150970 
	C1039.926514,235.928131 1039.926514,243.364960 1039.926514,251.530914 
	C1028.516479,251.530914 1017.156860,251.530914 1005.514404,251.530914 
	C1005.514404,257.500092 1005.514404,262.745575 1005.514404,268.693848 
	C1016.235413,268.693848 1026.778687,268.693848 1037.721313,268.693848 
	C1037.721313,276.026917 1037.654053,282.667816 1037.749634,289.306396 
	C1037.797729,292.648071 1035.614136,292.467102 1033.374146,292.463806 
	C1024.240356,292.450439 1015.106567,292.458221 1005.593506,292.458221 
	C1005.593506,299.401031 1005.593506,305.924286 1005.593506,312.985168 
	C1017.104553,312.985168 1028.340210,312.985168 1039.868652,312.985168 
	C1039.868652,321.080109 1039.868652,328.642731 1039.868652,336.515930 
	C1018.618286,336.515930 997.540283,336.515930 976.017456,336.515930 
	C976.017456,300.450256 976.017456,264.446991 976.017456,227.847916 
	C995.529907,227.847916 1014.967957,227.847916 1034.895020,227.847687 
z"/>
<path fill="#100D98" opacity="1.000000" stroke="none" 
	d="
M1200.458740,251.074554 
	C1200.562256,266.394165 1200.695190,281.713654 1200.758301,297.033417 
	C1200.798096,306.698608 1200.733643,316.364166 1200.216553,326.508911 
	C1199.148926,328.363708 1198.670166,329.785797 1197.983887,331.099579 
	C1197.447998,332.125305 1196.718506,333.784393 1195.965820,333.846802 
	C1189.531982,334.380341 1183.074951,334.798157 1176.621216,334.859314 
	C1173.364746,334.890198 1171.853149,333.072144 1171.931763,329.395142 
	C1172.177368,317.912415 1172.020508,306.421082 1172.019531,294.933105 
	C1172.017944,274.787506 1172.099609,254.641281 1171.944336,234.496872 
	C1171.913086,230.436050 1173.118530,228.727036 1177.348755,228.953079 
	C1182.495483,229.228104 1187.679932,228.814789 1192.823608,229.116379 
	C1195.140503,229.252243 1197.398315,230.398300 1199.923950,231.157562 
	C1200.331421,231.209091 1200.497925,231.189072 1200.664307,231.169037 
	C1200.682251,233.479141 1200.700195,235.789230 1200.244019,238.536148 
	C1197.065552,241.062134 1196.815430,242.824188 1200.449097,244.068558 
	C1200.532227,244.486389 1200.615356,244.904221 1200.231445,245.647736 
	C1197.056763,248.073837 1196.822998,249.837540 1200.458740,251.074554 
z"/>
<path fill="#363494" opacity="1.000000" stroke="none" 
	d="
M1074.007446,227.694275 
	C1086.302368,228.057587 1098.261353,227.311050 1109.861450,229.012054 
	C1134.939697,232.689453 1147.802979,245.997543 1151.102905,271.122620 
	C1153.395752,288.579376 1151.049072,305.362366 1139.156860,319.540039 
	C1132.248901,327.775452 1123.259888,333.556885 1112.922729,334.717743 
	C1095.334839,336.692810 1077.544189,336.862732 1059.426270,337.812775 
	C1059.426270,300.329010 1059.426270,264.295197 1059.426270,227.694092 
	C1064.251099,227.694092 1068.880005,227.694092 1074.007446,227.694275 
M1066.678955,229.012314 
	C1062.975098,228.458008 1061.687378,229.985641 1061.827515,233.744965 
	C1061.968262,237.521240 1061.070068,241.329178 1061.115601,245.117371 
	C1061.260376,257.166992 1061.760986,269.212555 1061.883423,281.262146 
	C1062.026611,295.358154 1061.941650,309.456879 1061.888306,323.554138 
	C1061.880737,325.523895 1061.680664,327.536926 1061.234009,329.451569 
	C1060.393188,333.055420 1061.735474,334.180084 1065.306274,334.134521 
	C1076.955444,333.985870 1088.622803,333.713379 1100.254272,334.189911 
	C1109.453491,334.566772 1117.861206,332.641083 1125.632568,327.970184 
	C1134.601685,322.579529 1140.662842,314.775665 1145.414429,305.393707 
	C1148.199219,299.895477 1147.437012,294.463989 1148.288940,288.995789 
	C1150.640747,273.901917 1149.496948,259.554077 1139.671387,247.016235 
	C1134.164917,239.990005 1126.977051,234.481064 1118.583496,232.414841 
	C1109.058228,230.070007 1098.980713,229.765411 1089.107910,229.102844 
	C1081.982910,228.624680 1074.799805,229.011169 1066.678955,229.012314 
z"/>
<path fill="#29258E" opacity="1.000000" stroke="none" 
	d="
M702.025635,251.008209 
	C700.239014,251.405518 698.460754,252.093704 696.664185,252.145493 
	C691.338257,252.298981 685.989807,252.451477 680.679626,252.124680 
	C676.279663,251.853912 675.866394,254.113464 675.879272,257.611359 
	C675.968811,281.930542 675.798523,306.251526 676.042786,330.568634 
	C676.091614,335.430603 675.184204,337.391663 669.827637,337.011169 
	C662.388794,336.482788 654.884399,336.878296 646.691406,336.878296 
	C646.691406,334.537201 646.691345,332.601074 646.691406,330.664948 
	C646.692383,306.678558 646.696289,282.692169 646.692444,258.705780 
	C646.691406,252.201340 646.680115,252.254074 639.973206,252.182175 
	C633.670898,252.114594 627.369934,251.919479 621.291870,251.412628 
	C623.015198,250.730545 624.515137,250.416275 626.443726,250.073166 
	C628.593262,250.056519 630.314087,250.068695 632.335876,250.355347 
	C637.108032,250.737350 641.579224,250.844910 646.390503,251.159821 
	C647.159424,253.236664 647.953979,255.104721 647.961304,256.975861 
	C648.048584,279.130066 648.003235,301.284790 648.045044,323.439240 
	C648.048767,325.411865 648.590332,327.384064 648.586731,329.355927 
	C648.576721,334.919800 652.109436,335.346649 656.348267,334.966888 
	C660.300720,334.612793 664.282654,333.924255 668.210754,334.137024 
	C672.715210,334.380951 674.192505,333.081665 674.143127,328.354370 
	C673.897827,304.869751 673.975281,281.380890 674.114502,257.894592 
	C674.128174,255.585861 675.336487,253.284195 676.392334,250.984467 
	C678.517700,250.687973 680.241150,250.386261 682.329224,249.915558 
	C687.457764,249.866425 692.221558,249.986298 697.258423,250.359375 
	C699.029541,250.744461 700.527588,250.876328 702.025635,251.008209 
z"/>
<path fill="#1C1883" opacity="1.000000" stroke="none" 
	d="
M389.618561,229.111191 
	C389.678741,261.881775 389.739349,294.652374 389.798462,327.422943 
	C389.803772,330.370239 389.799164,333.317505 389.799164,336.540771 
	C379.671906,336.540771 370.119995,336.540771 360.271790,336.540771 
	C360.271790,300.427094 360.271790,264.575012 360.271790,227.908905 
	C369.562469,227.908905 378.795074,227.908905 388.494934,228.249725 
	C389.062622,228.913300 389.281403,229.086853 389.618561,229.111191 
M361.012207,305.500000 
	C361.014252,313.652283 361.108612,321.806122 360.969543,329.955994 
	C360.919067,332.913330 361.809692,334.187164 364.934174,334.062073 
	C369.751251,333.869202 374.581726,334.013367 379.406525,334.010498 
	C387.505096,334.005707 387.493774,334.005035 387.023407,326.134308 
	C386.944122,324.808014 387.009338,323.473022 387.009338,322.142059 
	C387.009247,292.694183 386.952789,263.246033 387.081604,233.798721 
	C387.097595,230.146927 386.150146,228.724747 382.329803,228.934891 
	C377.022125,229.226852 371.662262,229.312805 366.369324,228.906357 
	C361.738556,228.550781 360.882019,230.427765 360.915283,234.624329 
	C361.100098,257.915009 361.008942,281.207886 361.012207,305.500000 
z"/>
<path fill="#29258E" opacity="1.000000" stroke="none" 
	d="
M356.856476,81.861122 
	C359.645508,76.650467 364.813477,73.965401 369.858063,75.106010 
	C376.169617,76.533104 380.348480,81.085121 380.424927,87.239189 
	C380.575775,99.383896 380.485962,111.531601 380.495209,123.678062 
	C380.496582,125.477463 380.495392,127.276871 380.495392,129.581009 
	C382.681488,129.694839 384.429749,129.861160 386.178375,129.864761 
	C397.825745,129.888718 409.473358,129.843964 421.120636,129.889847 
	C429.410980,129.922516 434.927856,134.602768 435.562561,142.004944 
	C436.159393,148.965256 431.397430,154.949066 423.252106,155.442596 
	C411.320618,156.165558 399.323761,155.825516 387.354523,155.903320 
	C380.504913,155.947845 380.502716,155.916504 380.500946,162.532455 
	C380.497925,174.013504 380.570312,185.495132 380.475342,196.975418 
	C380.383820,208.035507 371.190308,213.647858 361.045776,208.483887 
	C360.917542,208.097687 361.159119,207.829041 361.578613,207.881165 
	C363.803894,207.984238 365.623627,207.910126 367.412933,208.109131 
	C373.205170,208.753296 377.478333,205.153687 378.421753,198.944153 
	C379.162201,197.488434 379.817932,196.143082 379.823639,194.794983 
	C379.877930,181.921539 379.822205,169.047623 379.925476,155.770477 
	C381.696381,154.912674 383.335236,154.085175 384.984039,154.064911 
	C394.952118,153.942429 404.929993,153.773941 414.889130,154.097107 
	C420.293427,154.272476 425.619507,153.970734 429.813812,150.664459 
	C431.959137,148.973373 433.636810,145.429474 433.685608,142.690247 
	C433.734985,139.915848 432.226318,135.611313 430.139984,134.614487 
	C425.815826,132.548477 421.320190,130.485901 415.859070,130.853424 
	C405.603577,131.543625 395.268066,131.104324 384.967163,131.000992 
	C383.253876,130.983826 381.547424,130.289673 379.849854,129.449188 
	C379.867340,116.292809 379.939850,103.594833 379.796173,90.899323 
	C379.777496,89.248322 378.645172,87.609924 378.023285,85.583984 
	C377.446045,83.730461 377.205292,81.982483 376.246796,80.833092 
	C371.206299,74.788811 364.296265,75.297760 357.796814,82.035500 
	C357.595825,82.063942 357.211334,82.194244 357.122498,82.111099 
	C357.033630,82.027962 356.856476,81.861122 356.856476,81.861122 
z"/>
<path fill="#363494" opacity="1.000000" stroke="none" 
	d="
M728.093994,273.069244 
	C727.434937,275.134247 726.775879,277.199249 725.861328,279.634338 
	C725.340210,280.039093 725.073914,280.043579 724.807068,280.017853 
	C728.602844,267.864655 732.378845,255.705200 736.206543,243.562042 
	C737.352112,239.927689 739.052856,236.416992 739.758484,232.708694 
	C740.586304,228.358414 742.720276,227.189117 746.965820,227.323227 
	C756.770874,227.632980 766.595337,227.558548 776.405579,227.347397 
	C779.731323,227.275818 781.460876,228.215698 782.532959,231.501587 
	C793.485413,265.071808 804.589539,298.592560 815.563477,332.155823 
	C816.010742,333.523682 815.587830,335.176056 815.241211,336.336975 
	C814.623901,335.295227 814.335754,334.612366 814.047607,333.929504 
	C814.015869,333.488037 813.984192,333.046570 813.835571,332.057770 
	C813.564575,331.225555 813.339294,331.017761 813.042908,330.887024 
	C810.158875,322.386139 807.171631,313.918518 804.417725,305.375671 
	C801.175598,295.318481 798.230774,285.165283 794.970520,275.114197 
	C793.198547,269.651459 790.898926,264.360687 789.097656,258.906403 
	C787.542969,254.198883 786.421326,249.350204 784.987366,244.600418 
	C783.774231,240.581833 782.661865,236.495590 780.984680,232.667175 
	C779.821899,230.012924 777.556519,228.699875 774.178040,228.825806 
	C765.862610,229.135803 757.488342,229.425873 749.214417,228.764343 
	C743.352600,228.295654 741.650024,231.590591 740.243042,235.847137 
	C737.844055,243.104843 735.557922,250.400055 733.265015,257.692291 
	C733.020020,258.471405 733.044678,259.335266 732.582397,260.629089 
	C731.840942,262.081879 731.461365,263.065399 731.081787,264.048950 
	C730.701965,265.758423 730.322144,267.467865 729.586914,269.642639 
	C728.852356,271.095093 728.473206,272.082184 728.093994,273.069244 
z"/>
<path fill="#1C1889" opacity="1.000000" stroke="none" 
	d="
M926.400391,322.997101 
	C930.169800,325.806488 930.492920,329.314789 927.804199,334.142151 
	C934.986694,334.142151 941.497314,334.142151 949.145325,334.142151 
	C949.145325,330.083923 949.158264,326.445801 949.139038,322.807831 
	C949.131165,321.313782 949.014648,319.820068 949.014038,318.326172 
	C949.005249,297.710693 948.927063,277.094696 949.053955,256.479980 
	C949.096191,249.621460 949.805786,242.769211 949.958862,235.908463 
	C950.068909,230.979263 948.006592,229.052994 943.003723,229.024628 
	C933.693787,228.971848 924.383362,229.012360 914.887939,228.718262 
	C926.800964,228.267609 938.899231,228.112717 950.997498,227.957809 
	C951.361145,228.390594 951.724854,228.823395 951.945801,229.870895 
	C951.921509,232.382797 952.039917,234.279984 952.158325,236.177185 
	C952.161438,239.468826 952.164551,242.760468 951.926147,246.674347 
	C951.838440,248.244598 951.992188,249.192581 952.145935,250.140564 
	C952.151917,275.065552 952.157837,299.990509 951.984009,325.803528 
	C951.925537,328.514130 952.046936,330.336731 952.168396,332.159332 
	C952.168396,333.456848 952.168396,334.754364 952.168396,336.763458 
	C943.579102,336.763458 935.367371,336.763458 926.671875,336.241974 
	C926.258911,331.479370 926.329651,327.238220 926.400391,322.997101 
z"/>
<path fill="#141076" opacity="1.000000" stroke="none" 
	d="
M830.981567,230.009369 
	C830.982300,263.156006 831.060303,296.303009 830.889771,329.448761 
	C830.867554,333.773773 831.919617,335.745087 836.423218,334.992889 
	C841.859802,334.084869 847.306519,333.237335 853.111877,332.627655 
	C853.286255,334.214050 853.097534,335.536407 852.908875,336.858765 
	C844.925537,336.618317 836.942261,336.377869 828.978149,335.235901 
	C829.000488,299.231079 829.003662,264.127747 829.006775,229.024399 
	C829.006775,229.024399 828.994324,229.008667 829.257446,229.114746 
	C830.007507,229.483658 830.494568,229.746506 830.981567,230.009369 
z"/>
<path fill="#272586" opacity="1.000000" stroke="none" 
	d="
M1199.682861,231.085999 
	C1197.398315,230.398300 1195.140503,229.252243 1192.823608,229.116379 
	C1187.679932,228.814789 1182.495483,229.228104 1177.348755,228.953079 
	C1173.118530,228.727036 1171.913086,230.436050 1171.944336,234.496872 
	C1172.099609,254.641281 1172.017944,274.787506 1172.019531,294.933105 
	C1172.020508,306.421082 1172.177368,317.912415 1171.931763,329.395142 
	C1171.853149,333.072144 1173.364746,334.890198 1176.621216,334.859314 
	C1183.074951,334.798157 1189.531982,334.380341 1195.965820,333.846802 
	C1196.718506,333.784393 1197.447998,332.125305 1197.983887,331.099579 
	C1198.670166,329.785797 1199.148926,328.363708 1200.087524,326.955078 
	C1200.597656,330.013916 1200.737549,333.105896 1200.897461,336.640930 
	C1190.731445,336.640930 1181.175171,336.640930 1171.287476,336.640930 
	C1171.287476,300.578125 1171.287476,264.410919 1171.287476,227.921967 
	C1180.750000,227.921967 1190.037598,227.921967 1199.586670,228.415329 
	C1199.793213,229.634460 1199.738037,230.360229 1199.682861,231.085999 
z"/>
<path fill="#29258E" opacity="1.000000" stroke="none" 
	d="
M357.713928,205.251419 
	C356.803070,202.356644 355.184204,199.480789 355.106232,196.563736 
	C354.799164,185.078659 354.976501,173.580627 354.974243,162.087402 
	C354.973877,160.285919 354.974213,158.484436 354.974213,155.905273 
	C351.864044,155.905273 349.251923,155.966461 346.643402,155.894897 
	C333.854736,155.544083 321.067017,155.157928 308.129395,154.396912 
	C307.979828,154.009567 308.124176,153.815552 308.579803,153.870026 
	C314.011597,153.951340 318.987701,153.993805 323.963898,154.001617 
	C332.590088,154.015152 341.219727,153.870819 349.840546,154.086777 
	C352.629425,154.156647 356.324371,153.887894 356.875458,157.948135 
	C357.494843,162.511383 357.805115,167.140213 357.892700,171.747299 
	C358.102264,182.770874 358.102264,193.798416 358.069153,204.931702 
	C357.951416,205.039032 357.713928,205.251419 357.713928,205.251419 
z"/>
<path fill="#1C1883" opacity="1.000000" stroke="none" 
	d="
M453.115753,231.527649 
	C444.009613,226.271393 433.906036,229.708923 424.245483,229.122162 
	C415.007690,228.561096 414.992126,229.000961 414.993622,238.218384 
	C414.998047,265.529358 414.959320,292.840424 415.025269,320.151215 
	C415.035950,324.578735 413.858368,330.697937 416.200562,332.961609 
	C418.598785,335.279449 424.647797,333.973419 429.097931,333.960449 
	C432.049133,333.951874 434.998871,333.427612 438.345673,333.067627 
	C439.552673,335.396271 439.107788,336.862213 436.173553,336.865692 
	C429.524292,336.873596 422.875244,336.986389 416.225983,337.043854 
	C412.878876,337.072784 413.260773,334.661072 413.261047,332.487549 
	C413.264130,306.542450 413.262024,280.597382 413.261414,254.652298 
	C413.261200,245.887344 413.261353,237.122406 413.261353,227.858566 
	C425.633820,227.858566 437.403961,227.755341 449.166687,228.002945 
	C450.481873,228.030609 451.755127,230.049347 453.115753,231.527649 
z"/>
<path fill="#1C1883" opacity="1.000000" stroke="none" 
	d="
M516.373108,235.518723 
	C515.134766,234.048569 514.042664,232.138779 512.277893,229.052780 
	C507.533051,229.052780 501.431305,228.869370 495.366028,229.256592 
	C494.487366,229.312683 493.113281,232.098938 493.100494,233.631241 
	C492.945099,252.291626 493.027161,270.953857 492.960693,289.615295 
	C492.954559,291.334808 492.351959,293.052246 491.654114,294.892456 
	C491.281982,272.786713 491.281982,250.559158 491.281982,228.083435 
	C499.336853,228.083435 507.579803,228.083435 516.519348,228.083435 
	C516.519348,230.563675 516.519348,232.821381 516.373108,235.518723 
z"/>
<path fill="#272586" opacity="1.000000" stroke="none" 
	d="
M626.015015,250.102005 
	C624.515137,250.416275 623.015198,250.730545 621.110107,251.070648 
	C620.519958,244.342285 620.334961,237.588120 620.434082,230.208572 
	C620.814087,229.137054 620.909912,228.690903 621.005737,228.244751 
	C621.478088,228.108810 621.950684,227.853333 622.422852,227.854019 
	C648.818176,227.892883 675.213501,227.953140 701.816162,228.864944 
	C702.034119,232.001175 702.044678,234.283722 702.055237,236.566269 
	C702.176636,237.354492 702.297974,238.142731 702.225891,239.691299 
	C702.039734,243.489365 702.047058,246.527069 702.054443,249.564789 
	C702.167664,249.901703 702.280823,250.238602 702.209839,250.791855 
	C700.527588,250.876328 699.029541,250.744461 697.651306,250.271851 
	C698.521484,248.449417 699.793396,247.010620 699.919434,245.477585 
	C700.232483,241.671402 699.774841,237.801636 700.090759,233.995926 
	C700.422852,229.996490 698.957214,228.898941 695.019958,228.932556 
	C674.195801,229.110321 653.369324,229.014984 632.543640,229.012619 
	C620.788330,229.011292 620.369385,229.163223 622.246155,240.894775 
	C622.727661,243.904694 620.721436,248.771317 626.015015,250.102005 
z"/>
<path fill="#817FD0" opacity="1.000000" stroke="none" 
	d="
M926.292969,322.538513 
	C926.329651,327.238220 926.258911,331.479370 926.228088,336.155731 
	C925.655090,334.973999 924.519897,333.360382 924.509399,331.739563 
	C924.394043,313.784424 924.499390,295.827911 924.388794,277.872681 
	C924.378479,276.186859 923.302795,274.507599 922.251831,272.903961 
	C922.770630,268.413818 923.759277,263.844971 924.747925,259.276154 
	C925.227112,259.333191 925.706360,259.390228 926.185547,259.447266 
	C926.185547,280.324799 926.185547,301.202362 926.292969,322.538513 
M924.989441,269.505127 
	C924.754456,269.215454 924.519470,268.925751 924.284546,268.636047 
	C924.148743,268.914154 923.829346,269.338318 923.912292,269.442566 
	C924.146545,269.737152 924.545654,269.900635 924.989441,269.505127 
z"/>
<path fill="#1C1883" opacity="1.000000" stroke="none" 
	d="
M516.375366,328.525177 
	C515.485352,327.753937 514.105957,326.539978 514.099854,325.319153 
	C513.974792,300.389160 513.988647,275.458313 514.065979,250.527924 
	C514.069458,249.400986 514.930237,248.276718 515.807129,247.091644 
	C516.345276,253.317337 516.565369,259.602478 516.573120,265.887909 
	C516.598572,286.618317 516.547241,307.348816 516.375366,328.525177 
z"/>
<path fill="#29258E" opacity="1.000000" stroke="none" 
	d="
M303.632629,151.320007 
	C299.416229,147.396606 299.144562,142.758453 301.174988,137.709427 
	C303.391113,132.198563 307.971252,130.043518 313.405548,129.941238 
	C325.209503,129.719116 337.020569,129.887375 348.828644,129.859360 
	C350.647797,129.855042 352.466492,129.656113 354.737305,129.322388 
	C355.189178,129.097580 355.187836,129.138046 354.954956,129.468536 
	C352.685822,130.217560 350.664032,130.898666 348.610931,131.011658 
	C335.937561,131.709198 323.219238,131.869843 310.592957,133.040619 
	C302.727295,133.769958 299.774750,140.813354 303.406281,147.977386 
	C303.842621,148.838150 303.925659,149.878006 304.038147,150.956879 
	C303.903839,151.078903 303.632629,151.320007 303.632629,151.320007 
z"/>
<path fill="#817FD0" opacity="1.000000" stroke="none" 
	d="
M853.307861,336.864563 
	C853.097534,335.536407 853.286255,334.214050 853.477539,332.488159 
	C853.518982,314.081726 853.562500,296.078888 853.590576,278.076019 
	C853.593872,275.937561 853.513245,273.799011 853.681641,271.339478 
	C854.464233,275.252716 855.477112,279.481354 855.531067,283.722260 
	C855.738281,299.995941 855.687195,316.273956 855.567810,332.549133 
	C855.557190,333.993988 854.355408,335.430115 853.307861,336.864563 
z"/>
<path fill="#1C1889" opacity="1.000000" stroke="none" 
	d="
M831.281616,229.716339 
	C830.494568,229.746506 830.007507,229.483658 829.265869,229.110428 
	C829.747864,228.599121 830.482239,227.853317 831.221252,227.848785 
	C843.143555,227.775894 855.066406,227.797256 867.681580,227.797256 
	C869.504089,234.245041 871.327026,240.694275 873.140747,247.558273 
	C872.194885,247.419403 870.660828,247.051682 870.421021,246.281158 
	C869.106018,242.055725 867.729492,237.783325 867.133911,233.423233 
	C866.732971,230.488342 865.544495,229.067490 862.878723,229.075455 
	C852.446106,229.106583 842.013916,229.293976 831.281616,229.716339 
z"/>
<path fill="#1C1889" opacity="1.000000" stroke="none" 
	d="
M886.708984,296.036346 
	C881.090454,285.111206 879.328918,272.977539 875.620667,261.464233 
	C874.303955,257.376190 872.603394,253.660782 873.165222,248.812653 
	C876.734253,259.655487 880.239319,270.991364 883.729492,282.331787 
	C884.751465,285.652374 885.731323,288.985962 886.726562,293.062683 
	C886.718140,294.553284 886.713562,295.294800 886.708984,296.036346 
z"/>
<path fill="#1C1883" opacity="1.000000" stroke="none" 
	d="
M477.337341,334.685669 
	C487.609589,334.189056 497.988190,334.271667 508.348938,333.880981 
	C510.743042,333.790680 513.076111,332.081390 515.828735,331.075623 
	C516.319580,332.782104 516.419006,334.530090 516.546936,336.778778 
	C503.890137,336.778778 491.811218,336.809601 479.733459,336.706512 
	C478.963531,336.699921 478.202423,335.654755 477.337341,334.685669 
z"/>
<path fill="#1C1889" opacity="1.000000" stroke="none" 
	d="
M828.827393,229.386810 
	C829.003662,264.127747 829.000488,299.231079 828.932800,334.824524 
	C828.763367,332.673248 828.566833,330.031769 828.567688,327.390381 
	C828.577759,294.843323 828.616516,262.296265 828.827393,229.386810 
z"/>
<path fill="#1C1883" opacity="1.000000" stroke="none" 
	d="
M355.169983,129.091217 
	C355.170776,114.694214 355.190796,100.303574 355.625519,85.478775 
	C356.368958,85.017357 356.698029,84.994873 357.302673,85.260834 
	C357.712402,86.184288 357.964264,86.824112 357.963989,87.463829 
	C357.958282,100.471001 357.976959,113.478973 357.778687,126.483543 
	C357.765015,127.381332 356.090149,128.253799 355.187836,129.138031 
	C355.187836,129.138046 355.189178,129.097580 355.169983,129.091217 
z"/>
<path fill="#363494" opacity="1.000000" stroke="none" 
	d="
M741.941040,323.645447 
	C740.046692,316.916656 741.394287,315.079742 748.234619,315.070648 
	C756.841003,315.059174 765.447693,315.026642 774.053406,315.101196 
	C775.636353,315.114899 777.215271,315.595032 778.964966,316.203247 
	C770.153748,316.553558 761.155945,316.903564 752.200012,316.441559 
	C746.630249,316.154266 742.913208,317.272003 741.941040,323.645447 
z"/>
<path fill="#141076" opacity="1.000000" stroke="none" 
	d="
M813.574707,333.956390 
	C814.335754,334.612366 814.623901,335.295227 814.927551,336.275909 
	C805.622131,336.636688 796.301208,336.699615 786.454407,336.344971 
	C785.637146,334.628174 785.345825,333.328979 785.054504,332.029816 
	C787.984497,332.692230 790.895020,333.795990 793.848511,333.926422 
	C800.254639,334.209290 806.682800,333.994537 813.574707,333.956390 
z"/>
<path fill="#29258E" opacity="1.000000" stroke="none" 
	d="
M708.143616,333.913391 
	C717.761963,333.940948 727.380249,333.968475 737.536133,334.164062 
	C738.186646,334.609650 738.382324,334.803558 738.660828,334.913879 
	C737.298279,335.567719 735.945862,336.761353 734.571472,336.787354 
	C726.030945,336.949066 717.485474,336.848938 708.483521,336.387451 
	C708.064758,335.263977 708.104187,334.588684 708.143616,333.913391 
z"/>
<path fill="#817FD0" opacity="1.000000" stroke="none" 
	d="
M950.679810,227.699310 
	C938.899231,228.112717 926.800964,228.267609 914.428955,228.716522 
	C913.757507,229.721939 913.359741,230.433334 912.737183,231.768448 
	C911.995117,234.596054 911.477783,236.799942 910.960510,239.003830 
	C910.636047,239.752228 910.311584,240.500626 909.775391,241.759216 
	C909.507874,242.816086 909.452087,243.362762 909.396240,243.909439 
	C909.263306,244.349014 909.130371,244.788605 908.695557,245.619293 
	C908.214417,246.008545 908.035339,246.006683 907.856201,246.004822 
	C909.324036,240.335922 910.657654,234.625214 912.396606,229.040726 
	C912.674866,228.147049 914.765198,227.314423 916.022583,227.307449 
	C927.468506,227.244064 938.915527,227.370117 950.679810,227.699310 
z"/>
<path fill="#363494" opacity="1.000000" stroke="none" 
	d="
M708.265991,333.604004 
	C708.104187,334.588684 708.064758,335.263977 708.029053,336.277222 
	C707.723755,335.478271 706.888367,334.174774 707.187256,333.230164 
	C710.075317,324.102325 713.153931,315.034790 716.524780,306.107178 
	C716.915100,306.843689 716.958801,307.422974 717.002441,308.002289 
	C717.002441,308.002289 717.000000,308.000000 716.739563,308.220337 
	C716.036011,309.990417 715.592896,311.540222 715.149780,313.090027 
	C715.149780,313.090027 715.080261,313.544983 714.776123,314.007874 
	C714.308716,315.642395 714.145447,316.814056 713.982178,317.985687 
	C713.671570,318.459045 713.360901,318.932404 712.769165,319.884064 
	C712.379150,320.940430 712.270325,321.518494 712.161499,322.096558 
	C711.538452,324.173767 710.915344,326.250977 709.925171,328.771973 
	C709.311646,329.442169 709.187256,329.722717 709.184875,330.057434 
	C708.919373,331.136475 708.653870,332.215546 708.265991,333.604004 
z"/>
<path fill="#363494" opacity="1.000000" stroke="none" 
	d="
M784.886963,331.671173 
	C785.345825,333.328979 785.637146,334.628174 785.998047,336.256866 
	C785.122009,335.320099 783.733032,334.185455 783.310852,332.763672 
	C781.831360,327.781036 780.685059,322.699432 779.431885,317.259399 
	C780.806641,319.961609 782.259094,323.022247 783.476501,326.173706 
	C784.106079,327.803467 784.318481,329.594391 784.886963,331.671173 
z"/>
<path fill="#363494" opacity="1.000000" stroke="none" 
	d="
M719.043152,301.043640 
	C718.787109,301.841614 718.531128,302.639618 717.879822,303.729919 
	C717.306946,304.020874 717.129333,304.019562 716.951782,304.018280 
	C719.235107,296.874542 721.518433,289.730804 724.258301,282.530029 
	C724.803589,282.974945 724.892334,283.476837 724.981140,283.978760 
	C724.670593,284.454193 724.360046,284.929626 723.780640,285.880249 
	C723.391968,286.919098 723.272095,287.482758 723.152283,288.046387 
	C723.109741,288.477234 723.067200,288.908081 722.748047,289.877625 
	C722.312439,291.274353 722.153442,292.132385 721.994446,292.990387 
	C721.688110,293.465302 721.381775,293.940216 720.772949,294.943481 
	C719.994690,297.329071 719.518921,299.186371 719.043152,301.043640 
z"/>
<path fill="#1C1883" opacity="1.000000" stroke="none" 
	d="
M438.899292,328.504791 
	C438.502197,325.353455 438.046814,321.756775 438.033691,318.158478 
	C438.001587,309.345520 438.173676,300.531799 438.506287,291.391693 
	C438.846741,303.396240 438.944458,315.727478 438.899292,328.504791 
z"/>
<path fill="#817FD0" opacity="1.000000" stroke="none" 
	d="
M904.062622,336.449829 
	C905.761230,329.053375 907.790649,321.558197 910.123779,313.882935 
	C908.416138,321.252289 906.404724,328.801727 904.062622,336.449829 
z"/>
<path fill="#817FD0" opacity="1.000000" stroke="none" 
	d="
M854.090942,265.054749 
	C853.167297,263.226074 852.630127,261.487701 852.092957,259.749329 
	C852.805298,259.519348 853.517700,259.289337 854.230042,259.059357 
	C855.744263,264.217010 857.258484,269.374634 858.643677,274.916626 
	C857.168884,271.915649 855.823120,268.530365 854.090942,265.054749 
z"/>
<path fill="#817FD0" opacity="1.000000" stroke="none" 
	d="
M893.028198,297.217896 
	C893.413208,297.953979 893.538757,298.897888 893.413696,300.317993 
	C892.447083,302.294464 891.731079,303.794769 891.015076,305.295044 
	C890.149475,304.058258 889.283875,302.821442 888.318481,301.095398 
	C888.237183,300.276245 888.407837,300.076050 888.730591,300.005585 
	C891.954895,302.085571 891.513306,298.427643 893.028198,297.217896 
z"/>
<path fill="#1C1889" opacity="1.000000" stroke="none" 
	d="
M903.998901,262.975464 
	C903.285522,266.282135 902.572205,269.588806 901.473267,272.987915 
	C901.087585,273.080292 901.025452,273.025635 901.063721,272.653442 
	C901.099548,271.544128 901.097046,270.806976 901.094482,270.069824 
	C901.211914,269.378326 901.329346,268.686859 901.882568,267.536194 
	C902.878540,265.709839 903.438721,264.342651 903.998901,262.975464 
z"/>
<path fill="#1C1889" opacity="1.000000" stroke="none" 
	d="
M901.119324,273.106781 
	C900.345520,276.712341 899.539917,280.291412 898.373047,283.542633 
	C898.508484,280.705231 899.005127,278.195709 899.501831,275.686157 
	C899.614197,275.012115 899.726624,274.338104 900.177185,273.361176 
	C900.685364,273.047394 900.855408,273.036530 901.025452,273.025635 
	C901.025452,273.025635 901.087585,273.080292 901.119324,273.106781 
z"/>
<path fill="#817FD0" opacity="1.000000" stroke="none" 
	d="
M871.349121,322.115967 
	C872.539978,324.636536 873.609253,327.541199 874.486816,330.709442 
	C873.272522,328.148743 872.250061,325.324402 871.349121,322.115967 
z"/>
<path fill="#817FD0" opacity="1.000000" stroke="none" 
	d="
M918.827271,284.113708 
	C919.312134,281.220917 920.064514,278.121765 921.123413,274.856201 
	C920.651611,277.762299 919.873230,280.834808 918.827271,284.113708 
z"/>
<path fill="#363494" opacity="1.000000" stroke="none" 
	d="
M738.912354,334.667114 
	C738.382324,334.803558 738.186646,334.609650 737.999146,334.132660 
	C737.960938,333.510254 737.997253,333.087341 738.359375,332.155029 
	C739.039246,330.060638 739.393311,328.475616 739.747314,326.890564 
	C740.056702,326.570984 740.366089,326.251434 740.901672,325.908173 
	C740.473206,328.729767 739.818604,331.575073 738.912354,334.667114 
z"/>
<path fill="#817FD0" opacity="1.000000" stroke="none" 
	d="
M863.298828,293.144653 
	C864.478333,295.718109 865.537476,298.679016 866.441772,301.999451 
	C865.250854,299.416687 864.214722,296.474396 863.298828,293.144653 
z"/>
<path fill="#817FD0" opacity="1.000000" stroke="none" 
	d="
M907.865967,249.996475 
	C907.560913,250.714050 907.255798,251.431641 906.701721,252.699219 
	C905.842285,254.594070 905.231873,255.938950 904.621460,257.283813 
	C905.386963,254.242630 906.152527,251.201462 907.341064,248.324829 
	C907.798035,248.991760 907.832031,249.494110 907.865967,249.996475 
z"/>
<path fill="#817FD0" opacity="1.000000" stroke="none" 
	d="
M911.046814,311.764221 
	C911.482361,309.012512 912.199646,306.031006 913.238037,302.916290 
	C912.815674,305.700165 912.072083,308.617279 911.046814,311.764221 
z"/>
<path fill="#272586" opacity="1.000000" stroke="none" 
	d="
M1200.606812,243.659515 
	C1196.815430,242.824188 1197.065552,241.062134 1200.115479,238.950211 
	C1200.562256,240.368469 1200.663330,241.809464 1200.606812,243.659515 
z"/>
<path fill="#272586" opacity="1.000000" stroke="none" 
	d="
M1200.614502,250.663818 
	C1196.822998,249.837540 1197.056763,248.073837 1200.109619,245.949707 
	C1200.559814,247.368362 1200.664917,248.810715 1200.614502,250.663818 
z"/>
<path fill="#817FD0" opacity="1.000000" stroke="none" 
	d="
M894.846863,294.951294 
	C894.569031,295.036652 894.313660,295.166290 893.864807,295.349426 
	C894.346924,292.601562 895.044983,289.844574 896.013062,286.897766 
	C896.173584,287.845520 896.063965,288.983124 895.655334,290.764465 
	C895.186523,292.589264 895.016663,293.770294 894.846863,294.951294 
z"/>
<path fill="#817FD0" opacity="1.000000" stroke="none" 
	d="
M866.604980,305.245544 
	C867.762390,307.541443 868.709290,310.073151 869.529297,312.972260 
	C868.399658,310.720215 867.397034,308.100800 866.604980,305.245544 
z"/>
<path fill="#1C1889" opacity="1.000000" stroke="none" 
	d="
M904.546631,257.564880 
	C905.231873,255.938950 905.842285,254.594070 906.678345,252.991394 
	C906.455933,255.434555 906.007874,258.135529 905.147583,260.622437 
	C904.587219,259.937439 904.439148,259.466492 904.291138,258.995514 
	C904.351379,258.612335 904.411621,258.229156 904.546631,257.564880 
z"/>
<path fill="#1C1883" opacity="1.000000" stroke="none" 
	d="
M438.873566,281.581390 
	C438.470886,279.747375 438.196655,277.488312 438.257996,275.107727 
	C438.729706,277.042938 438.865875,279.099640 438.873566,281.581390 
z"/>
<path fill="#817FD0" opacity="1.000000" stroke="none" 
	d="
M904.011353,259.229797 
	C904.439148,259.466492 904.587219,259.937439 904.742188,260.669800 
	C904.508118,261.425995 904.267029,261.920776 904.012451,262.695526 
	C903.438721,264.342651 902.878540,265.709839 902.026123,267.215576 
	C902.399841,264.724091 903.065735,262.094086 904.011353,259.229797 
z"/>
<path fill="#817FD0" opacity="1.000000" stroke="none" 
	d="
M899.223389,275.868256 
	C899.005127,278.195709 898.508484,280.705231 897.999878,283.610291 
	C897.813843,284.027557 897.639771,284.049347 897.205139,284.033569 
	C897.611389,281.347443 898.278137,278.698883 899.223389,275.868256 
z"/>
<path fill="#817FD0" opacity="1.000000" stroke="none" 
	d="
M952.468567,236.039993 
	C952.039917,234.279984 951.921509,232.382797 951.977173,230.170807 
	C952.360413,231.871597 952.569641,233.887207 952.468567,236.039993 
z"/>
<path fill="#817FD0" opacity="1.000000" stroke="none" 
	d="
M952.478638,332.025940 
	C952.046936,330.336731 951.925537,328.514130 951.978271,326.261475 
	C952.364563,327.851807 952.576660,329.872192 952.478638,332.025940 
z"/>
<path fill="#29258E" opacity="1.000000" stroke="none" 
	d="
M725.319946,283.922363 
	C724.892334,283.476837 724.803589,282.974945 724.523193,282.300842 
	C724.365356,281.639252 724.399170,281.149872 724.620056,280.339172 
	C725.073914,280.043579 725.340210,280.039093 725.805786,279.992371 
	C725.890015,281.275543 725.774353,282.570740 725.319946,283.922363 
z"/>
<path fill="#817FD0" opacity="1.000000" stroke="none" 
	d="
M869.515015,315.259430 
	C870.315063,316.515747 870.924316,318.015533 871.343506,319.750824 
	C870.543701,318.491852 869.934021,316.997375 869.515015,315.259430 
z"/>
<path fill="#29258E" opacity="1.000000" stroke="none" 
	d="
M702.254639,249.181732 
	C702.047058,246.527069 702.039734,243.489365 702.042847,239.943115 
	C702.187134,242.555939 702.321045,245.677322 702.254639,249.181732 
z"/>
<path fill="#1C1889" opacity="1.000000" stroke="none" 
	d="
M888.675415,299.718689 
	C888.407837,300.076050 888.237183,300.276245 888.158081,300.808899 
	C887.623657,300.084106 887.149780,299.156525 887.146362,298.111969 
	C887.810669,298.216064 888.054260,298.316406 888.347534,298.295990 
	C888.438416,298.674591 888.529297,299.053223 888.675415,299.718689 
z"/>
<path fill="#29258E" opacity="1.000000" stroke="none" 
	d="
M307.906555,154.105743 
	C306.520386,153.444366 305.207458,152.686798 303.763611,151.624619 
	C303.632629,151.320007 303.903839,151.078903 304.339783,151.045029 
	C305.891907,151.945953 307.008026,152.880753 308.124176,153.815552 
	C308.124176,153.815552 307.979828,154.009567 307.906555,154.105743 
z"/>
<path fill="#29258E" opacity="1.000000" stroke="none" 
	d="
M360.798096,208.233200 
	C359.748322,207.535278 358.817993,206.701859 357.800812,205.559921 
	C357.713928,205.251419 357.951416,205.039032 358.375458,205.028717 
	C359.586029,205.955276 360.372589,206.892151 361.159119,207.829041 
	C361.159119,207.829041 360.917542,208.097687 360.798096,208.233200 
z"/>
<path fill="#1C1889" opacity="1.000000" stroke="none" 
	d="
M908.222473,249.947052 
	C907.832031,249.494110 907.798035,248.991760 907.623291,248.138382 
	C907.556213,247.389282 907.629822,246.991180 907.779846,246.298950 
	C908.035339,246.006683 908.214417,246.008545 908.657959,245.962128 
	C908.807861,247.241791 908.693420,248.569717 908.222473,249.947052 
z"/>
<path fill="#817FD0" opacity="1.000000" stroke="none" 
	d="
M917.108032,290.667297 
	C917.095520,289.382172 917.317810,287.893311 917.861938,286.198059 
	C917.903381,287.482300 917.623108,288.972900 917.108032,290.667297 
z"/>
<path fill="#817FD0" opacity="1.000000" stroke="none" 
	d="
M888.504517,297.963440 
	C888.054260,298.316406 887.810669,298.216064 887.430786,297.913330 
	C887.147156,297.426147 887.049622,297.020599 886.830505,296.325684 
	C886.713562,295.294800 886.718140,294.553284 886.804321,293.448547 
	C887.477722,294.600555 888.069641,296.115723 888.504517,297.963440 
z"/>
<path fill="#817FD0" opacity="1.000000" stroke="none" 
	d="
M874.475708,333.004120 
	C875.183777,333.751007 875.735779,334.824554 876.288025,336.219238 
	C875.632019,335.470490 874.975830,334.400665 874.475708,333.004120 
z"/>
<path fill="#817FD0" opacity="1.000000" stroke="none" 
	d="
M914.164734,300.747070 
	C914.134460,299.741699 914.361084,298.582458 914.886047,297.211029 
	C914.930176,298.196960 914.675842,299.395050 914.164734,300.747070 
z"/>
<path fill="#29258E" opacity="1.000000" stroke="none" 
	d="
M702.253052,236.206055 
	C702.044678,234.283722 702.034119,232.001175 702.054077,229.232758 
	C702.206604,231.113220 702.328735,233.479538 702.253052,236.206055 
z"/>
<path fill="#817FD0" opacity="1.000000" stroke="none" 
	d="
M858.677979,277.202942 
	C859.355469,278.053162 859.822083,279.105164 860.205444,280.518036 
	C859.570435,279.720825 859.018738,278.562744 858.677979,277.202942 
z"/>
<path fill="#817FD0" opacity="1.000000" stroke="none" 
	d="
M860.373657,283.035583 
	C860.976929,283.676392 861.427490,284.631683 861.755615,285.914368 
	C861.162415,285.277893 860.691711,284.313965 860.373657,283.035583 
z"/>
<path fill="#29258E" opacity="1.000000" stroke="none" 
	d="
M357.027435,84.977165 
	C356.698029,84.994873 356.368958,85.017357 355.792969,85.040039 
	C355.817230,84.097046 356.088684,83.158607 356.608307,82.040649 
	C356.856476,81.861122 357.033630,82.027962 357.090820,82.303345 
	C357.148010,82.578728 357.188202,82.968285 357.147247,83.302032 
	C357.079987,84.082901 357.053711,84.530037 357.027435,84.977165 
z"/>
<path fill="#817FD0" opacity="1.000000" stroke="none" 
	d="
M915.727417,295.093353 
	C915.632996,294.192749 915.820496,293.113190 916.338318,291.914368 
	C916.448914,292.834869 916.229187,293.874634 915.727417,295.093353 
z"/>
<path fill="#817FD0" opacity="1.000000" stroke="none" 
	d="
M901.063721,272.653442 
	C900.855408,273.036530 900.685364,273.047394 900.261353,273.030029 
	C900.216003,272.127106 900.424622,271.252472 900.863892,270.223816 
	C901.097046,270.806976 901.099548,271.544128 901.063721,272.653442 
z"/>
<path fill="#817FD0" opacity="1.000000" stroke="none" 
	d="
M861.796997,288.183960 
	C862.408081,288.761108 862.825623,289.520477 863.151245,290.616699 
	C862.574158,290.091064 862.088806,289.228607 861.796997,288.183960 
z"/>
<path fill="#817FD0" opacity="1.000000" stroke="none" 
	d="
M952.392212,249.944519 
	C951.992188,249.192581 951.838440,248.244598 951.918213,247.125824 
	C952.313904,247.886200 952.476196,248.817337 952.392212,249.944519 
z"/>
<path fill="#29258E" opacity="1.000000" stroke="none" 
	d="
M716.800293,304.221985 
	C717.129333,304.019562 717.306946,304.020874 717.751099,304.020325 
	C717.853638,305.186829 717.689575,306.355255 717.263977,307.763000 
	C716.958801,307.422974 716.915100,306.843689 716.765137,305.840698 
	C716.655457,305.086609 716.652100,304.756134 716.800293,304.221985 
z"/>
<path fill="#6A6AAE" opacity="1.000000" stroke="none" 
	d="
M1199.923950,231.157562 
	C1199.738037,230.360229 1199.793213,229.634460 1199.876465,228.544098 
	C1200.267212,228.952560 1200.629761,229.725601 1200.828369,230.833832 
	C1200.497925,231.189072 1200.331421,231.209091 1199.923950,231.157562 
z"/>
<path fill="#29258E" opacity="1.000000" stroke="none" 
	d="
M620.734314,228.297974 
	C620.909912,228.690903 620.814087,229.137054 620.558594,229.750000 
	C620.420227,229.394928 620.441589,228.873062 620.734314,228.297974 
z"/>
<path fill="#1C1889" opacity="1.000000" stroke="none" 
	d="
M896.645020,286.163757 
	C896.990173,286.165375 897.185120,286.339203 897.380005,286.513031 
	C897.272705,286.599792 897.165344,286.686523 896.846313,286.772217 
	C896.634521,286.771210 896.494812,286.335999 896.645020,286.163757 
z"/>
<path fill="#6A6AAE" opacity="1.000000" stroke="none" 
	d="
M389.711212,228.848480 
	C389.281403,229.086853 389.062622,228.913300 388.945526,228.370132 
	C389.220551,228.295074 389.512207,228.440414 389.711212,228.848480 
z"/>
<path fill="#F9F9FA" opacity="1.000000" stroke="none" 
	d="
M297.285095,290.692627 
	C306.558258,315.217590 312.835999,339.910004 311.159424,366.048492 
	C309.233917,396.068878 284.446411,424.299622 254.891144,430.176605 
	C220.392700,437.036530 190.713501,423.528534 173.613831,392.940125 
	C167.131668,381.344666 164.771378,368.717194 165.203278,355.467743 
	C166.277695,322.507538 177.244888,292.347626 191.337845,263.108704 
	C203.564865,237.741058 218.445587,213.952820 235.064911,191.240356 
	C235.928314,190.060410 236.865799,188.934692 238.319611,187.081696 
	C240.951248,190.503326 243.423386,193.491119 245.652084,196.650620 
	C265.934326,225.403885 283.429169,255.711792 296.622131,288.404999 
	C296.869171,289.017212 296.961975,289.691681 297.285095,290.692627 
z"/>
<path fill="#1C1889" opacity="1.000000" stroke="none" 
	d="
M891.090637,305.603333 
	C891.731079,303.794769 892.447083,302.294464 893.485229,300.613159 
	C893.160400,302.371155 896.205811,306.089966 891.090637,305.603333 
z"/>
<path fill="#1C1889" opacity="1.000000" stroke="none" 
	d="
M911.348145,238.921021 
	C911.477783,236.799942 911.995117,234.596054 912.716797,232.075043 
	C912.526062,234.117996 912.130859,236.478104 911.348145,238.921021 
z"/>
<path fill="#1C1889" opacity="1.000000" stroke="none" 
	d="
M895.210632,294.913818 
	C895.016663,293.770294 895.186523,292.589264 895.566895,291.116699 
	C895.709778,292.175568 895.642090,293.525940 895.210632,294.913818 
z"/>
<path fill="#1C1889" opacity="1.000000" stroke="none" 
	d="
M909.567017,243.695923 
	C909.452087,243.362762 909.507874,242.816086 909.757812,242.065460 
	C909.880615,242.401825 909.809143,242.942123 909.567017,243.695923 
z"/>
<path fill="#1C1883" opacity="1.000000" stroke="none" 
	d="
M493.589355,299.043823 
	C493.193359,299.284424 492.799225,299.282379 492.407379,299.251465 
	C492.395935,299.250549 492.408508,298.945374 492.409882,298.782043 
	C492.803772,298.787048 493.197632,298.792023 493.589355,299.043823 
z"/>
<path fill="#EAEBF9" opacity="1.000000" stroke="none" 
	d="
M752.012695,292.772583 
	C751.705688,291.383484 750.874390,289.869019 751.172058,288.624542 
	C754.414062,275.071045 757.832825,261.559845 761.498535,246.853333 
	C764.598816,258.838928 767.480408,269.734558 770.210754,280.667938 
	C771.156494,284.454926 771.727051,288.335663 771.774780,292.349548 
	C764.724609,292.607849 758.368652,292.690216 752.012695,292.772583 
z"/>
<path fill="#141076" opacity="1.000000" stroke="none" 
	d="
M752.063232,293.169525 
	C758.368652,292.690216 764.724609,292.607849 771.541382,292.614502 
	C770.822815,293.466705 769.675415,294.822449 768.458313,294.888153 
	C763.790894,295.140350 759.099243,295.042419 754.421448,294.908234 
	C753.640015,294.885834 752.882324,294.034668 752.063232,293.169525 
z"/>
<path fill="#29258E" opacity="1.000000" stroke="none" 
	d="
M739.415771,327.029449 
	C739.393311,328.475616 739.039246,330.060638 738.384094,331.837219 
	C738.416687,330.408569 738.750427,328.788452 739.415771,327.029449 
z"/>
<path fill="#29258E" opacity="1.000000" stroke="none" 
	d="
M719.407166,300.940491 
	C719.518921,299.186371 719.994690,297.329071 720.730835,295.233002 
	C720.584595,296.941925 720.177856,298.889618 719.407166,300.940491 
z"/>
<path fill="#29258E" opacity="1.000000" stroke="none" 
	d="
M715.494263,312.971741 
	C715.592896,311.540222 716.036011,309.990417 716.740845,308.220703 
	C716.614685,309.618317 716.226685,311.235901 715.494263,312.971741 
z"/>
<path fill="#29258E" opacity="1.000000" stroke="none" 
	d="
M731.412842,263.962219 
	C731.461365,263.065399 731.840942,262.081879 732.549438,261.019653 
	C732.500183,261.919128 732.122070,262.897339 731.412842,263.962219 
z"/>
<path fill="#29258E" opacity="1.000000" stroke="none" 
	d="
M728.422852,272.976318 
	C728.473206,272.082184 728.852356,271.095093 729.561401,270.028015 
	C729.511475,270.926483 729.131592,271.904938 728.422852,272.976318 
z"/>
<path fill="#29258E" opacity="1.000000" stroke="none" 
	d="
M714.248901,317.750946 
	C714.145447,316.814056 714.308716,315.642395 714.737915,314.234802 
	C714.841187,315.171295 714.678406,316.343750 714.248901,317.750946 
z"/>
<path fill="#29258E" opacity="1.000000" stroke="none" 
	d="
M712.430908,322.020325 
	C712.270325,321.518494 712.379150,320.940430 712.720093,320.172394 
	C712.868225,320.636292 712.784302,321.290192 712.430908,322.020325 
z"/>
<path fill="#29258E" opacity="1.000000" stroke="none" 
	d="
M722.251099,292.779572 
	C722.153442,292.132385 722.312439,291.274353 722.722595,290.201324 
	C722.818420,290.847107 722.663086,291.707947 722.251099,292.779572 
z"/>
<path fill="#29258E" opacity="1.000000" stroke="none" 
	d="
M723.357056,287.843597 
	C723.272095,287.482758 723.391968,286.919098 723.742554,286.171783 
	C723.836060,286.539001 723.698914,287.089905 723.357056,287.843597 
z"/>
<path fill="#29258E" opacity="1.000000" stroke="none" 
	d="
M709.357544,329.910095 
	C709.187256,329.722717 709.311646,329.442169 709.760620,329.095367 
	C709.897278,329.280701 709.752930,329.543274 709.357544,329.910095 
z"/>
<path fill="#141076" opacity="1.000000" stroke="none" 
	d="
M813.113159,331.112610 
	C813.339294,331.017761 813.564575,331.225555 813.796143,331.728088 
	C813.564270,331.833435 813.334167,331.630920 813.113159,331.112610 
z"/>
<path fill="#110D97" opacity="1.000000" stroke="none" 
	d="
M1067.160889,229.012161 
	C1074.799805,229.011169 1081.982910,228.624680 1089.107910,229.102844 
	C1098.980713,229.765411 1109.058228,230.070007 1118.583496,232.414841 
	C1126.977051,234.481064 1134.164917,239.990005 1139.671387,247.016235 
	C1149.496948,259.554077 1150.640747,273.901917 1148.288940,288.995789 
	C1147.437012,294.463989 1148.199219,299.895477 1145.414429,305.393707 
	C1140.662842,314.775665 1134.601685,322.579529 1125.632568,327.970184 
	C1117.861206,332.641083 1109.453491,334.566772 1100.254272,334.189911 
	C1088.622803,333.713379 1076.955444,333.985870 1065.306274,334.134521 
	C1061.735474,334.180084 1060.393188,333.055420 1061.234009,329.451569 
	C1061.680664,327.536926 1061.880737,325.523895 1061.888306,323.554138 
	C1061.941650,309.456879 1062.026611,295.358154 1061.883423,281.262146 
	C1061.760986,269.212555 1061.260376,257.166992 1061.115601,245.117371 
	C1061.070068,241.329178 1061.968262,237.521240 1061.827515,233.744965 
	C1061.687378,229.985641 1062.975098,228.458008 1067.160889,229.012161 
M1116.000000,303.996338 
	C1116.000000,303.996338 1115.816772,303.829102 1116.528198,303.817169 
	C1117.774658,300.226898 1119.021118,296.636597 1120.250488,292.261078 
	C1120.400513,291.226440 1120.550537,290.191803 1121.258301,288.733612 
	C1122.594360,283.716675 1123.782104,278.704712 1120.529663,273.080353 
	C1120.449585,272.035522 1120.369629,270.990692 1120.762085,269.443756 
	C1119.607422,264.145203 1118.834106,258.612091 1112.805542,256.185211 
	C1112.805542,256.185211 1112.664551,256.328979 1112.559570,255.716110 
	C1112.014648,255.496017 1111.469727,255.275925 1110.497681,254.864090 
	C1110.497681,254.864090 1110.127197,254.577759 1109.924194,253.924866 
	C1103.580811,250.298752 1096.973999,248.838547 1089.427490,251.767059 
	C1089.270996,251.843277 1089.114502,251.919479 1088.161987,252.120041 
	C1087.812744,252.822037 1087.160522,253.523148 1087.158447,254.226089 
	C1087.104736,272.835205 1087.078857,291.444794 1087.213623,310.053101 
	C1087.222046,311.219269 1088.472168,313.295837 1089.319946,313.391235 
	C1096.157837,314.160950 1103.152832,315.197723 1109.277710,309.777313 
	C1109.277710,309.777313 1109.632935,309.716980 1110.312988,309.861725 
	C1110.878418,309.255371 1111.443848,308.648987 1112.195801,307.737396 
	C1112.195801,307.737396 1112.509277,307.564941 1113.110474,307.577240 
	C1113.313110,307.257446 1113.515869,306.937653 1113.878784,306.290771 
	C1113.878784,306.290771 1114.167969,306.069550 1114.818604,305.982880 
	C1115.152222,305.263611 1115.485840,304.544342 1116.000000,303.996338 
z"/>
<path fill="#120F98" opacity="1.000000" stroke="none" 
	d="
M626.443726,250.073166 
	C620.721436,248.771317 622.727661,243.904694 622.246155,240.894775 
	C620.369385,229.163223 620.788330,229.011292 632.543640,229.012619 
	C653.369324,229.014984 674.195801,229.110321 695.019958,228.932556 
	C698.957214,228.898941 700.422852,229.996490 700.090759,233.995926 
	C699.774841,237.801636 700.232483,241.671402 699.919434,245.477585 
	C699.793396,247.010620 698.521484,248.449417 697.378235,250.018646 
	C692.221558,249.986298 687.457764,249.866425 681.931396,249.890640 
	C679.442627,250.349564 677.716431,250.664413 675.990295,250.979248 
	C675.336487,253.284195 674.128174,255.585861 674.114502,257.894592 
	C673.975281,281.380890 673.897827,304.869751 674.143127,328.354370 
	C674.192505,333.081665 672.715210,334.380951 668.210754,334.137024 
	C664.282654,333.924255 660.300720,334.612793 656.348267,334.966888 
	C652.109436,335.346649 648.576721,334.919800 648.586731,329.355927 
	C648.590332,327.384064 648.048767,325.411865 648.045044,323.439240 
	C648.003235,301.284790 648.048584,279.130066 647.961304,256.975861 
	C647.953979,255.104721 647.159424,253.236664 646.307373,250.833344 
	C641.267761,250.226624 636.651367,250.153748 632.034912,250.080872 
	C630.314087,250.068695 628.593262,250.056519 626.443726,250.073166 
z"/>
<path fill="#272586" opacity="1.000000" stroke="none" 
	d="
M632.335876,250.355347 
	C636.651367,250.153748 641.267761,250.226624 645.967285,250.625977 
	C641.579224,250.844910 637.108032,250.737350 632.335876,250.355347 
z"/>
<path fill="#272586" opacity="1.000000" stroke="none" 
	d="
M676.392334,250.984467 
	C677.716431,250.664413 679.442627,250.349564 681.566650,250.059631 
	C680.241150,250.386261 678.517700,250.687973 676.392334,250.984467 
z"/>
<path fill="#110E98" opacity="1.000000" stroke="none" 
	d="
M361.012207,305.000000 
	C361.008942,281.207886 361.100098,257.915009 360.915283,234.624329 
	C360.882019,230.427765 361.738556,228.550781 366.369324,228.906357 
	C371.662262,229.312805 377.022125,229.226852 382.329803,228.934891 
	C386.150146,228.724747 387.097595,230.146927 387.081604,233.798721 
	C386.952789,263.246033 387.009247,292.694183 387.009338,322.142059 
	C387.009338,323.473022 386.944122,324.808014 387.023407,326.134308 
	C387.493774,334.005035 387.505096,334.005707 379.406525,334.010498 
	C374.581726,334.013367 369.751251,333.869202 364.934174,334.062073 
	C361.809692,334.187164 360.919067,332.913330 360.969543,329.955994 
	C361.108612,321.806122 361.014252,313.652283 361.012207,305.000000 
z"/>
<path fill="#141198" opacity="1.000000" stroke="none" 
	d="
M357.302673,85.260834 
	C357.053711,84.530037 357.079987,84.082901 357.328003,83.187103 
	C357.768738,82.537361 357.918091,82.293571 357.997772,82.007057 
	C364.296265,75.297760 371.206299,74.788811 376.246796,80.833092 
	C377.205292,81.982483 377.446045,83.730461 378.014862,86.056381 
	C378.009125,99.774101 377.947388,112.638344 378.084442,125.500473 
	C378.100159,126.975830 379.226440,128.439362 379.837799,129.908371 
	C381.547424,130.289673 383.253876,130.983826 384.967163,131.000992 
	C395.268066,131.104324 405.603577,131.543625 415.859070,130.853424 
	C421.320190,130.485901 425.815826,132.548477 430.139984,134.614487 
	C432.226318,135.611313 433.734985,139.915848 433.685608,142.690247 
	C433.636810,145.429474 431.959137,148.973373 429.813812,150.664459 
	C425.619507,153.970734 420.293427,154.272476 414.889130,154.097107 
	C404.929993,153.773941 394.952118,153.942429 384.984039,154.064911 
	C383.335236,154.085175 381.696381,154.912674 379.599091,155.944077 
	C378.762329,158.237061 378.059113,159.950958 378.047729,161.669434 
	C377.965302,174.130188 378.022430,186.591843 378.035431,199.053223 
	C377.478333,205.153687 373.205170,208.753296 367.412933,208.109131 
	C365.623627,207.910126 363.803894,207.984238 361.578613,207.881165 
	C360.372589,206.892151 359.586029,205.955276 358.493164,204.921387 
	C358.102264,193.798416 358.102264,182.770874 357.892700,171.747299 
	C357.805115,167.140213 357.494843,162.511383 356.875458,157.948135 
	C356.324371,153.887894 352.629425,154.156647 349.840546,154.086777 
	C341.219727,153.870819 332.590088,154.015152 323.963898,154.001617 
	C318.987701,153.993805 314.011597,153.951340 308.579803,153.870026 
	C307.008026,152.880753 305.891907,151.945953 304.474091,150.923004 
	C303.925659,149.878006 303.842621,148.838150 303.406281,147.977386 
	C299.774750,140.813354 302.727295,133.769958 310.592957,133.040619 
	C323.219238,131.869843 335.937561,131.709198 348.610931,131.011658 
	C350.664032,130.898666 352.685822,130.217560 354.954956,129.468536 
	C356.090149,128.253799 357.765015,127.381332 357.778687,126.483543 
	C357.976959,113.478973 357.958282,100.471001 357.963989,87.463829 
	C357.964264,86.824112 357.712402,86.184288 357.302673,85.260834 
z"/>
<path fill="#141076" opacity="1.000000" stroke="none" 
	d="
M379.849854,129.449188 
	C379.226440,128.439362 378.100159,126.975830 378.084442,125.500473 
	C377.947388,112.638344 378.009125,99.774101 378.020233,86.438087 
	C378.645172,87.609924 379.777496,89.248322 379.796173,90.899323 
	C379.939850,103.594833 379.867340,116.292809 379.849854,129.449188 
z"/>
<path fill="#141076" opacity="1.000000" stroke="none" 
	d="
M378.421753,198.944153 
	C378.022430,186.591843 377.965302,174.130188 378.047729,161.669434 
	C378.059113,159.950958 378.762329,158.237061 379.471680,156.347443 
	C379.822205,169.047623 379.877930,181.921539 379.823639,194.794983 
	C379.817932,196.143082 379.162201,197.488434 378.421753,198.944153 
z"/>
<path fill="#1C1883" opacity="1.000000" stroke="none" 
	d="
M357.796814,82.035500 
	C357.918091,82.293571 357.768738,82.537361 357.368958,82.853363 
	C357.188202,82.968285 357.148010,82.578728 357.179688,82.386490 
	C357.211334,82.194244 357.595825,82.063942 357.796814,82.035500 
z"/>
<path fill="#FAFAFB" opacity="1.000000" stroke="none" 
	d="
M924.934631,269.810425 
	C924.545654,269.900635 924.146545,269.737152 923.912292,269.442566 
	C923.829346,269.338318 924.148743,268.914154 924.284546,268.636047 
	C924.519470,268.925751 924.754456,269.215454 924.934631,269.810425 
z"/>
<path fill="#F5F5FB" opacity="1.000000" stroke="none" 
	d="
M1110.127197,254.577759 
	C1110.127197,254.577759 1110.497681,254.864090 1110.782227,255.255173 
	C1111.599243,255.873825 1112.131958,256.101410 1112.664551,256.328979 
	C1112.664551,256.328979 1112.805542,256.185211 1112.843628,256.602722 
	C1115.351074,261.328766 1117.820312,265.637299 1120.289551,269.945862 
	C1120.369629,270.990692 1120.449585,272.035522 1120.498047,273.912842 
	C1120.544434,279.549316 1120.622437,284.353241 1120.700562,289.157196 
	C1120.550537,290.191803 1120.400513,291.226440 1119.963623,292.867371 
	C1118.390137,296.925507 1117.103516,300.377289 1115.816772,303.829102 
	C1115.816772,303.829102 1116.000000,303.996338 1115.612427,303.991028 
	C1114.872559,304.680359 1114.520264,305.374969 1114.167969,306.069580 
	C1114.167969,306.069550 1113.878784,306.290771 1113.513672,306.483398 
	C1112.935547,306.972290 1112.722412,307.268616 1112.509277,307.564941 
	C1112.509277,307.564941 1112.195801,307.737396 1111.785156,307.885620 
	C1110.794067,308.594879 1110.213501,309.155914 1109.632935,309.716980 
	C1109.632935,309.716980 1109.277710,309.777313 1108.729248,309.853119 
	C1103.453857,310.754059 1098.731323,311.605865 1093.998657,312.396118 
	C1090.100952,313.046936 1088.842651,311.431305 1088.882690,307.448425 
	C1089.068604,288.965790 1088.960693,270.480194 1088.958008,251.995682 
	C1089.114502,251.919479 1089.270996,251.843277 1090.092285,251.782990 
	C1097.213745,252.725204 1103.670532,253.651474 1110.127197,254.577759 
z"/>
<path fill="#504DAE" opacity="1.000000" stroke="none" 
	d="
M1088.560059,252.057861 
	C1088.960693,270.480194 1089.068604,288.965790 1088.882690,307.448425 
	C1088.842651,311.431305 1090.100952,313.046936 1093.998657,312.396118 
	C1098.731323,311.605865 1103.453857,310.754059 1108.587891,309.964844 
	C1103.152832,315.197723 1096.157837,314.160950 1089.319946,313.391235 
	C1088.472168,313.295837 1087.222046,311.219269 1087.213623,310.053101 
	C1087.078857,291.444794 1087.104736,272.835205 1087.158447,254.226089 
	C1087.160522,253.523148 1087.812744,252.822037 1088.560059,252.057861 
z"/>
<path fill="#504DAE" opacity="1.000000" stroke="none" 
	d="
M1110.025635,254.251312 
	C1103.670532,253.651474 1097.213745,252.725204 1090.312500,251.642578 
	C1096.973999,248.838547 1103.580811,250.298752 1110.025635,254.251312 
z"/>
<path fill="#504DAE" opacity="1.000000" stroke="none" 
	d="
M1120.979492,288.945404 
	C1120.622437,284.353241 1120.544434,279.549316 1120.613770,274.289246 
	C1123.782104,278.704712 1122.594360,283.716675 1120.979492,288.945404 
z"/>
<path fill="#504DAE" opacity="1.000000" stroke="none" 
	d="
M1120.525879,269.694794 
	C1117.820312,265.637299 1115.351074,261.328766 1112.799438,256.693176 
	C1118.834106,258.612091 1119.607422,264.145203 1120.525879,269.694794 
z"/>
<path fill="#504DAE" opacity="1.000000" stroke="none" 
	d="
M1116.172485,303.823120 
	C1117.103516,300.377289 1118.390137,296.925507 1119.972168,293.260010 
	C1119.021118,296.636597 1117.774658,300.226898 1116.172485,303.823120 
z"/>
<path fill="#504DAE" opacity="1.000000" stroke="none" 
	d="
M1109.972900,309.789337 
	C1110.213501,309.155914 1110.794067,308.594879 1111.692017,308.038239 
	C1111.443848,308.648987 1110.878418,309.255371 1109.972900,309.789337 
z"/>
<path fill="#504DAE" opacity="1.000000" stroke="none" 
	d="
M1114.493408,306.026245 
	C1114.520264,305.374969 1114.872559,304.680359 1115.522217,303.905396 
	C1115.485840,304.544342 1115.152222,305.263611 1114.493408,306.026245 
z"/>
<path fill="#504DAE" opacity="1.000000" stroke="none" 
	d="
M1112.612061,256.022552 
	C1112.131958,256.101410 1111.599243,255.873825 1110.995728,255.351044 
	C1111.469727,255.275925 1112.014648,255.496017 1112.612061,256.022552 
z"/>
<path fill="#504DAE" opacity="1.000000" stroke="none" 
	d="
M1112.809814,307.571106 
	C1112.722412,307.268616 1112.935547,306.972290 1113.433594,306.646912 
	C1113.515869,306.937653 1113.313110,307.257446 1112.809814,307.571106 
z"/>
</svg>